<?xml version="1.0" encoding="UTF-8" standalone="no"?>
<svg width="227.189mm" height="170.744mm"
 viewBox="0 0 644 484"
 xmlns="http://www.w3.org/2000/svg" xmlns:xlink="http://www.w3.org/1999/xlink"  version="1.2" baseProfile="tiny">
<title>Qt SVG Document</title>
<desc>Generated with Qt</desc>
<defs>
</defs>
<g fill="none" stroke="black" stroke-width="1" fill-rule="evenodd" stroke-linecap="square" stroke-linejoin="bevel" >

<g fill="none" stroke="#000000" stroke-opacity="1" stroke-width="1" stroke-linecap="square" stroke-linejoin="bevel" transform="matrix(1,0,0,1,0,0)"
font-family="Noto Sans" font-size="10" font-weight="400" font-style="normal" 
>
</g>

<g fill="none" stroke="#000000" stroke-opacity="1" stroke-width="1" stroke-linecap="square" stroke-linejoin="bevel" transform="matrix(1.00625,0,0,1.00625,0,0)"
font-family="Noto Sans" font-size="10" font-weight="400" font-style="normal" 
>
</g>

<g fill="none" stroke="#000000" stroke-opacity="1" stroke-width="1" stroke-linecap="round" stroke-linejoin="round" transform="matrix(1.00625,0,0,1.00625,0,0)"
font-family="Noto Sans" font-size="10" font-weight="400" font-style="normal" 
>
<polyline fill="none" vector-effect="none" points="39.5,445.5 45.5,445.5 " />
<polyline fill="none" vector-effect="none" points="621.5,445.5 615.5,445.5 " />
</g>

<g fill="none" stroke="#000000" stroke-opacity="1" stroke-width="1" stroke-linecap="square" stroke-linejoin="bevel" transform="matrix(1.00625,0,0,1.00625,0,0)"
font-family="Noto Sans" font-size="10" font-weight="400" font-style="normal" 
>
</g>

<g fill="none" stroke="#000000" stroke-opacity="1" stroke-width="1" stroke-linecap="square" stroke-linejoin="bevel" transform="matrix(1.00625,0,0,1.00625,24.15,453.316)"
font-family="Noto Sans" font-size="10" font-weight="400" font-style="normal" 
>
</g>

<g fill="none" stroke="#000000" stroke-opacity="1" stroke-width="1" stroke-linecap="square" stroke-linejoin="bevel" transform="matrix(1.00625,0,0,1.00625,24.15,453.316)"
font-family="Noto Sans" font-size="10" font-weight="400" font-style="normal" 
>
</g>

<g fill="none" stroke="#000000" stroke-opacity="1" stroke-width="1" stroke-linecap="square" stroke-linejoin="bevel" transform="matrix(1.00625,0,0,1.00625,24.15,453.316)"
font-family="Noto Sans" font-size="10" font-weight="400" font-style="normal" 
>
</g>

<g fill="none" stroke="#000000" stroke-opacity="1" stroke-width="1" stroke-linecap="square" stroke-linejoin="bevel" transform="matrix(1.00625,0,0,1.00625,24.15,453.316)"
font-family="Noto Sans" font-size="10" font-weight="400" font-style="normal" 
>
</g>

<g fill="none" stroke="#000000" stroke-opacity="1" stroke-width="1" stroke-linecap="square" stroke-linejoin="bevel" transform="matrix(1.00625,0,0,1.00625,24.15,453.316)"
font-family="Noto Sans" font-size="10" font-weight="400" font-style="normal" 
>
</g>

<g fill="none" stroke="#000000" stroke-opacity="1" stroke-width="1" stroke-linecap="square" stroke-linejoin="bevel" transform="matrix(1.00625,0,0,1.00625,24.15,453.316)"
font-family="Sans" font-size="9" font-weight="400" font-style="normal" 
>
<text fill="#000000" fill-opacity="1" stroke="none" xml:space="preserve" x="0" y="0" font-family="Sans" font-size="9" font-weight="400" font-style="normal" 
 >-1</text>
</g>

<g fill="none" stroke="#000000" stroke-opacity="1" stroke-width="1" stroke-linecap="square" stroke-linejoin="bevel" transform="matrix(1.00625,0,0,1.00625,24.15,453.316)"
font-family="Noto Sans" font-size="10" font-weight="400" font-style="normal" 
>
</g>

<g fill="none" stroke="#000000" stroke-opacity="1" stroke-width="1" stroke-linecap="square" stroke-linejoin="bevel" transform="matrix(1.00625,0,0,1.00625,0,0)"
font-family="Noto Sans" font-size="10" font-weight="400" font-style="normal" 
>
</g>

<g fill="none" stroke="#000000" stroke-opacity="1" stroke-width="1" stroke-linecap="round" stroke-linejoin="round" transform="matrix(1.00625,0,0,1.00625,0,0)"
font-family="Noto Sans" font-size="10" font-weight="400" font-style="normal" 
>
<polyline fill="none" vector-effect="none" points="39.5,403.5 45.5,403.5 " />
<polyline fill="none" vector-effect="none" points="621.5,403.5 615.5,403.5 " />
</g>

<g fill="none" stroke="#000000" stroke-opacity="1" stroke-width="1" stroke-linecap="square" stroke-linejoin="bevel" transform="matrix(1.00625,0,0,1.00625,0,0)"
font-family="Noto Sans" font-size="10" font-weight="400" font-style="normal" 
>
</g>

<g fill="none" stroke="#000000" stroke-opacity="1" stroke-width="1" stroke-linecap="square" stroke-linejoin="bevel" transform="matrix(1.00625,0,0,1.00625,12.075,410.047)"
font-family="Noto Sans" font-size="10" font-weight="400" font-style="normal" 
>
</g>

<g fill="none" stroke="#000000" stroke-opacity="1" stroke-width="1" stroke-linecap="square" stroke-linejoin="bevel" transform="matrix(1.00625,0,0,1.00625,12.075,410.047)"
font-family="Noto Sans" font-size="10" font-weight="400" font-style="normal" 
>
</g>

<g fill="none" stroke="#000000" stroke-opacity="1" stroke-width="1" stroke-linecap="square" stroke-linejoin="bevel" transform="matrix(1.00625,0,0,1.00625,12.075,410.047)"
font-family="Noto Sans" font-size="10" font-weight="400" font-style="normal" 
>
</g>

<g fill="none" stroke="#000000" stroke-opacity="1" stroke-width="1" stroke-linecap="square" stroke-linejoin="bevel" transform="matrix(1.00625,0,0,1.00625,12.075,410.047)"
font-family="Noto Sans" font-size="10" font-weight="400" font-style="normal" 
>
</g>

<g fill="none" stroke="#000000" stroke-opacity="1" stroke-width="1" stroke-linecap="square" stroke-linejoin="bevel" transform="matrix(1.00625,0,0,1.00625,12.075,410.047)"
font-family="Noto Sans" font-size="10" font-weight="400" font-style="normal" 
>
</g>

<g fill="none" stroke="#000000" stroke-opacity="1" stroke-width="1" stroke-linecap="square" stroke-linejoin="bevel" transform="matrix(1.00625,0,0,1.00625,12.075,410.047)"
font-family="Sans" font-size="9" font-weight="400" font-style="normal" 
>
<text fill="#000000" fill-opacity="1" stroke="none" xml:space="preserve" x="0" y="0" font-family="Sans" font-size="9" font-weight="400" font-style="normal" 
 >-0.8</text>
</g>

<g fill="none" stroke="#000000" stroke-opacity="1" stroke-width="1" stroke-linecap="square" stroke-linejoin="bevel" transform="matrix(1.00625,0,0,1.00625,12.075,410.047)"
font-family="Noto Sans" font-size="10" font-weight="400" font-style="normal" 
>
</g>

<g fill="none" stroke="#000000" stroke-opacity="1" stroke-width="1" stroke-linecap="square" stroke-linejoin="bevel" transform="matrix(1.00625,0,0,1.00625,0,0)"
font-family="Noto Sans" font-size="10" font-weight="400" font-style="normal" 
>
</g>

<g fill="none" stroke="#000000" stroke-opacity="1" stroke-width="1" stroke-linecap="round" stroke-linejoin="round" transform="matrix(1.00625,0,0,1.00625,0,0)"
font-family="Noto Sans" font-size="10" font-weight="400" font-style="normal" 
>
<polyline fill="none" vector-effect="none" points="39.5,360.5 45.5,360.5 " />
<polyline fill="none" vector-effect="none" points="621.5,360.5 615.5,360.5 " />
</g>

<g fill="none" stroke="#000000" stroke-opacity="1" stroke-width="1" stroke-linecap="square" stroke-linejoin="bevel" transform="matrix(1.00625,0,0,1.00625,0,0)"
font-family="Noto Sans" font-size="10" font-weight="400" font-style="normal" 
>
</g>

<g fill="none" stroke="#000000" stroke-opacity="1" stroke-width="1" stroke-linecap="square" stroke-linejoin="bevel" transform="matrix(1.00625,0,0,1.00625,12.075,366.778)"
font-family="Noto Sans" font-size="10" font-weight="400" font-style="normal" 
>
</g>

<g fill="none" stroke="#000000" stroke-opacity="1" stroke-width="1" stroke-linecap="square" stroke-linejoin="bevel" transform="matrix(1.00625,0,0,1.00625,12.075,366.778)"
font-family="Noto Sans" font-size="10" font-weight="400" font-style="normal" 
>
</g>

<g fill="none" stroke="#000000" stroke-opacity="1" stroke-width="1" stroke-linecap="square" stroke-linejoin="bevel" transform="matrix(1.00625,0,0,1.00625,12.075,366.778)"
font-family="Noto Sans" font-size="10" font-weight="400" font-style="normal" 
>
</g>

<g fill="none" stroke="#000000" stroke-opacity="1" stroke-width="1" stroke-linecap="square" stroke-linejoin="bevel" transform="matrix(1.00625,0,0,1.00625,12.075,366.778)"
font-family="Noto Sans" font-size="10" font-weight="400" font-style="normal" 
>
</g>

<g fill="none" stroke="#000000" stroke-opacity="1" stroke-width="1" stroke-linecap="square" stroke-linejoin="bevel" transform="matrix(1.00625,0,0,1.00625,12.075,366.778)"
font-family="Noto Sans" font-size="10" font-weight="400" font-style="normal" 
>
</g>

<g fill="none" stroke="#000000" stroke-opacity="1" stroke-width="1" stroke-linecap="square" stroke-linejoin="bevel" transform="matrix(1.00625,0,0,1.00625,12.075,366.778)"
font-family="Sans" font-size="9" font-weight="400" font-style="normal" 
>
<text fill="#000000" fill-opacity="1" stroke="none" xml:space="preserve" x="0" y="0" font-family="Sans" font-size="9" font-weight="400" font-style="normal" 
 >-0.6</text>
</g>

<g fill="none" stroke="#000000" stroke-opacity="1" stroke-width="1" stroke-linecap="square" stroke-linejoin="bevel" transform="matrix(1.00625,0,0,1.00625,12.075,366.778)"
font-family="Noto Sans" font-size="10" font-weight="400" font-style="normal" 
>
</g>

<g fill="none" stroke="#000000" stroke-opacity="1" stroke-width="1" stroke-linecap="square" stroke-linejoin="bevel" transform="matrix(1.00625,0,0,1.00625,0,0)"
font-family="Noto Sans" font-size="10" font-weight="400" font-style="normal" 
>
</g>

<g fill="none" stroke="#000000" stroke-opacity="1" stroke-width="1" stroke-linecap="round" stroke-linejoin="round" transform="matrix(1.00625,0,0,1.00625,0,0)"
font-family="Noto Sans" font-size="10" font-weight="400" font-style="normal" 
>
<polyline fill="none" vector-effect="none" points="39.5,317.5 45.5,317.5 " />
<polyline fill="none" vector-effect="none" points="621.5,317.5 615.5,317.5 " />
</g>

<g fill="none" stroke="#000000" stroke-opacity="1" stroke-width="1" stroke-linecap="square" stroke-linejoin="bevel" transform="matrix(1.00625,0,0,1.00625,0,0)"
font-family="Noto Sans" font-size="10" font-weight="400" font-style="normal" 
>
</g>

<g fill="none" stroke="#000000" stroke-opacity="1" stroke-width="1" stroke-linecap="square" stroke-linejoin="bevel" transform="matrix(1.00625,0,0,1.00625,12.075,323.509)"
font-family="Noto Sans" font-size="10" font-weight="400" font-style="normal" 
>
</g>

<g fill="none" stroke="#000000" stroke-opacity="1" stroke-width="1" stroke-linecap="square" stroke-linejoin="bevel" transform="matrix(1.00625,0,0,1.00625,12.075,323.509)"
font-family="Noto Sans" font-size="10" font-weight="400" font-style="normal" 
>
</g>

<g fill="none" stroke="#000000" stroke-opacity="1" stroke-width="1" stroke-linecap="square" stroke-linejoin="bevel" transform="matrix(1.00625,0,0,1.00625,12.075,323.509)"
font-family="Noto Sans" font-size="10" font-weight="400" font-style="normal" 
>
</g>

<g fill="none" stroke="#000000" stroke-opacity="1" stroke-width="1" stroke-linecap="square" stroke-linejoin="bevel" transform="matrix(1.00625,0,0,1.00625,12.075,323.509)"
font-family="Noto Sans" font-size="10" font-weight="400" font-style="normal" 
>
</g>

<g fill="none" stroke="#000000" stroke-opacity="1" stroke-width="1" stroke-linecap="square" stroke-linejoin="bevel" transform="matrix(1.00625,0,0,1.00625,12.075,323.509)"
font-family="Noto Sans" font-size="10" font-weight="400" font-style="normal" 
>
</g>

<g fill="none" stroke="#000000" stroke-opacity="1" stroke-width="1" stroke-linecap="square" stroke-linejoin="bevel" transform="matrix(1.00625,0,0,1.00625,12.075,323.509)"
font-family="Sans" font-size="9" font-weight="400" font-style="normal" 
>
<text fill="#000000" fill-opacity="1" stroke="none" xml:space="preserve" x="0" y="0" font-family="Sans" font-size="9" font-weight="400" font-style="normal" 
 >-0.4</text>
</g>

<g fill="none" stroke="#000000" stroke-opacity="1" stroke-width="1" stroke-linecap="square" stroke-linejoin="bevel" transform="matrix(1.00625,0,0,1.00625,12.075,323.509)"
font-family="Noto Sans" font-size="10" font-weight="400" font-style="normal" 
>
</g>

<g fill="none" stroke="#000000" stroke-opacity="1" stroke-width="1" stroke-linecap="square" stroke-linejoin="bevel" transform="matrix(1.00625,0,0,1.00625,0,0)"
font-family="Noto Sans" font-size="10" font-weight="400" font-style="normal" 
>
</g>

<g fill="none" stroke="#000000" stroke-opacity="1" stroke-width="1" stroke-linecap="round" stroke-linejoin="round" transform="matrix(1.00625,0,0,1.00625,0,0)"
font-family="Noto Sans" font-size="10" font-weight="400" font-style="normal" 
>
<polyline fill="none" vector-effect="none" points="39.5,274.5 45.5,274.5 " />
<polyline fill="none" vector-effect="none" points="621.5,274.5 615.5,274.5 " />
</g>

<g fill="none" stroke="#000000" stroke-opacity="1" stroke-width="1" stroke-linecap="square" stroke-linejoin="bevel" transform="matrix(1.00625,0,0,1.00625,0,0)"
font-family="Noto Sans" font-size="10" font-weight="400" font-style="normal" 
>
</g>

<g fill="none" stroke="#000000" stroke-opacity="1" stroke-width="1" stroke-linecap="square" stroke-linejoin="bevel" transform="matrix(1.00625,0,0,1.00625,12.075,280.241)"
font-family="Noto Sans" font-size="10" font-weight="400" font-style="normal" 
>
</g>

<g fill="none" stroke="#000000" stroke-opacity="1" stroke-width="1" stroke-linecap="square" stroke-linejoin="bevel" transform="matrix(1.00625,0,0,1.00625,12.075,280.241)"
font-family="Noto Sans" font-size="10" font-weight="400" font-style="normal" 
>
</g>

<g fill="none" stroke="#000000" stroke-opacity="1" stroke-width="1" stroke-linecap="square" stroke-linejoin="bevel" transform="matrix(1.00625,0,0,1.00625,12.075,280.241)"
font-family="Noto Sans" font-size="10" font-weight="400" font-style="normal" 
>
</g>

<g fill="none" stroke="#000000" stroke-opacity="1" stroke-width="1" stroke-linecap="square" stroke-linejoin="bevel" transform="matrix(1.00625,0,0,1.00625,12.075,280.241)"
font-family="Noto Sans" font-size="10" font-weight="400" font-style="normal" 
>
</g>

<g fill="none" stroke="#000000" stroke-opacity="1" stroke-width="1" stroke-linecap="square" stroke-linejoin="bevel" transform="matrix(1.00625,0,0,1.00625,12.075,280.241)"
font-family="Noto Sans" font-size="10" font-weight="400" font-style="normal" 
>
</g>

<g fill="none" stroke="#000000" stroke-opacity="1" stroke-width="1" stroke-linecap="square" stroke-linejoin="bevel" transform="matrix(1.00625,0,0,1.00625,12.075,280.241)"
font-family="Sans" font-size="9" font-weight="400" font-style="normal" 
>
<text fill="#000000" fill-opacity="1" stroke="none" xml:space="preserve" x="0" y="0" font-family="Sans" font-size="9" font-weight="400" font-style="normal" 
 >-0.2</text>
</g>

<g fill="none" stroke="#000000" stroke-opacity="1" stroke-width="1" stroke-linecap="square" stroke-linejoin="bevel" transform="matrix(1.00625,0,0,1.00625,12.075,280.241)"
font-family="Noto Sans" font-size="10" font-weight="400" font-style="normal" 
>
</g>

<g fill="none" stroke="#000000" stroke-opacity="1" stroke-width="1" stroke-linecap="square" stroke-linejoin="bevel" transform="matrix(1.00625,0,0,1.00625,0,0)"
font-family="Noto Sans" font-size="10" font-weight="400" font-style="normal" 
>
</g>

<g fill="none" stroke="#000000" stroke-opacity="1" stroke-width="1" stroke-linecap="round" stroke-linejoin="round" transform="matrix(1.00625,0,0,1.00625,0,0)"
font-family="Noto Sans" font-size="10" font-weight="400" font-style="normal" 
>
<polyline fill="none" vector-effect="none" points="39.5,231.5 45.5,231.5 " />
<polyline fill="none" vector-effect="none" points="621.5,231.5 615.5,231.5 " />
</g>

<g fill="none" stroke="#000000" stroke-opacity="1" stroke-width="1" stroke-linecap="square" stroke-linejoin="bevel" transform="matrix(1.00625,0,0,1.00625,0,0)"
font-family="Noto Sans" font-size="10" font-weight="400" font-style="normal" 
>
</g>

<g fill="none" stroke="#000000" stroke-opacity="1" stroke-width="1" stroke-linecap="square" stroke-linejoin="bevel" transform="matrix(1.00625,0,0,1.00625,23.1438,236.972)"
font-family="Noto Sans" font-size="10" font-weight="400" font-style="normal" 
>
</g>

<g fill="none" stroke="#000000" stroke-opacity="1" stroke-width="1" stroke-linecap="square" stroke-linejoin="bevel" transform="matrix(1.00625,0,0,1.00625,23.1438,236.972)"
font-family="Noto Sans" font-size="10" font-weight="400" font-style="normal" 
>
</g>

<g fill="none" stroke="#000000" stroke-opacity="1" stroke-width="1" stroke-linecap="square" stroke-linejoin="bevel" transform="matrix(1.00625,0,0,1.00625,23.1438,236.972)"
font-family="Noto Sans" font-size="10" font-weight="400" font-style="normal" 
>
</g>

<g fill="none" stroke="#000000" stroke-opacity="1" stroke-width="1" stroke-linecap="square" stroke-linejoin="bevel" transform="matrix(1.00625,0,0,1.00625,23.1438,236.972)"
font-family="Noto Sans" font-size="10" font-weight="400" font-style="normal" 
>
</g>

<g fill="none" stroke="#000000" stroke-opacity="1" stroke-width="1" stroke-linecap="square" stroke-linejoin="bevel" transform="matrix(1.00625,0,0,1.00625,23.1438,236.972)"
font-family="Noto Sans" font-size="10" font-weight="400" font-style="normal" 
>
</g>

<g fill="none" stroke="#000000" stroke-opacity="1" stroke-width="1" stroke-linecap="square" stroke-linejoin="bevel" transform="matrix(1.00625,0,0,1.00625,23.1438,236.972)"
font-family="Sans" font-size="9" font-weight="400" font-style="normal" 
>
<text fill="#000000" fill-opacity="1" stroke="none" xml:space="preserve" x="0" y="0" font-family="Sans" font-size="9" font-weight="400" font-style="normal" 
 > 0</text>
</g>

<g fill="none" stroke="#000000" stroke-opacity="1" stroke-width="1" stroke-linecap="square" stroke-linejoin="bevel" transform="matrix(1.00625,0,0,1.00625,23.1438,236.972)"
font-family="Noto Sans" font-size="10" font-weight="400" font-style="normal" 
>
</g>

<g fill="none" stroke="#000000" stroke-opacity="1" stroke-width="1" stroke-linecap="square" stroke-linejoin="bevel" transform="matrix(1.00625,0,0,1.00625,0,0)"
font-family="Noto Sans" font-size="10" font-weight="400" font-style="normal" 
>
</g>

<g fill="none" stroke="#000000" stroke-opacity="1" stroke-width="1" stroke-linecap="round" stroke-linejoin="round" transform="matrix(1.00625,0,0,1.00625,0,0)"
font-family="Noto Sans" font-size="10" font-weight="400" font-style="normal" 
>
<polyline fill="none" vector-effect="none" points="39.5,188.5 45.5,188.5 " />
<polyline fill="none" vector-effect="none" points="621.5,188.5 615.5,188.5 " />
</g>

<g fill="none" stroke="#000000" stroke-opacity="1" stroke-width="1" stroke-linecap="square" stroke-linejoin="bevel" transform="matrix(1.00625,0,0,1.00625,0,0)"
font-family="Noto Sans" font-size="10" font-weight="400" font-style="normal" 
>
</g>

<g fill="none" stroke="#000000" stroke-opacity="1" stroke-width="1" stroke-linecap="square" stroke-linejoin="bevel" transform="matrix(1.00625,0,0,1.00625,13.0813,194.709)"
font-family="Noto Sans" font-size="10" font-weight="400" font-style="normal" 
>
</g>

<g fill="none" stroke="#000000" stroke-opacity="1" stroke-width="1" stroke-linecap="square" stroke-linejoin="bevel" transform="matrix(1.00625,0,0,1.00625,13.0813,194.709)"
font-family="Noto Sans" font-size="10" font-weight="400" font-style="normal" 
>
</g>

<g fill="none" stroke="#000000" stroke-opacity="1" stroke-width="1" stroke-linecap="square" stroke-linejoin="bevel" transform="matrix(1.00625,0,0,1.00625,13.0813,194.709)"
font-family="Noto Sans" font-size="10" font-weight="400" font-style="normal" 
>
</g>

<g fill="none" stroke="#000000" stroke-opacity="1" stroke-width="1" stroke-linecap="square" stroke-linejoin="bevel" transform="matrix(1.00625,0,0,1.00625,13.0813,194.709)"
font-family="Noto Sans" font-size="10" font-weight="400" font-style="normal" 
>
</g>

<g fill="none" stroke="#000000" stroke-opacity="1" stroke-width="1" stroke-linecap="square" stroke-linejoin="bevel" transform="matrix(1.00625,0,0,1.00625,13.0813,194.709)"
font-family="Noto Sans" font-size="10" font-weight="400" font-style="normal" 
>
</g>

<g fill="none" stroke="#000000" stroke-opacity="1" stroke-width="1" stroke-linecap="square" stroke-linejoin="bevel" transform="matrix(1.00625,0,0,1.00625,13.0813,194.709)"
font-family="Sans" font-size="9" font-weight="400" font-style="normal" 
>
<text fill="#000000" fill-opacity="1" stroke="none" xml:space="preserve" x="0" y="0" font-family="Sans" font-size="9" font-weight="400" font-style="normal" 
 > 0.2</text>
</g>

<g fill="none" stroke="#000000" stroke-opacity="1" stroke-width="1" stroke-linecap="square" stroke-linejoin="bevel" transform="matrix(1.00625,0,0,1.00625,13.0813,194.709)"
font-family="Noto Sans" font-size="10" font-weight="400" font-style="normal" 
>
</g>

<g fill="none" stroke="#000000" stroke-opacity="1" stroke-width="1" stroke-linecap="square" stroke-linejoin="bevel" transform="matrix(1.00625,0,0,1.00625,0,0)"
font-family="Noto Sans" font-size="10" font-weight="400" font-style="normal" 
>
</g>

<g fill="none" stroke="#000000" stroke-opacity="1" stroke-width="1" stroke-linecap="round" stroke-linejoin="round" transform="matrix(1.00625,0,0,1.00625,0,0)"
font-family="Noto Sans" font-size="10" font-weight="400" font-style="normal" 
>
<polyline fill="none" vector-effect="none" points="39.5,145.5 45.5,145.5 " />
<polyline fill="none" vector-effect="none" points="621.5,145.5 615.5,145.5 " />
</g>

<g fill="none" stroke="#000000" stroke-opacity="1" stroke-width="1" stroke-linecap="square" stroke-linejoin="bevel" transform="matrix(1.00625,0,0,1.00625,0,0)"
font-family="Noto Sans" font-size="10" font-weight="400" font-style="normal" 
>
</g>

<g fill="none" stroke="#000000" stroke-opacity="1" stroke-width="1" stroke-linecap="square" stroke-linejoin="bevel" transform="matrix(1.00625,0,0,1.00625,13.0813,151.441)"
font-family="Noto Sans" font-size="10" font-weight="400" font-style="normal" 
>
</g>

<g fill="none" stroke="#000000" stroke-opacity="1" stroke-width="1" stroke-linecap="square" stroke-linejoin="bevel" transform="matrix(1.00625,0,0,1.00625,13.0813,151.441)"
font-family="Noto Sans" font-size="10" font-weight="400" font-style="normal" 
>
</g>

<g fill="none" stroke="#000000" stroke-opacity="1" stroke-width="1" stroke-linecap="square" stroke-linejoin="bevel" transform="matrix(1.00625,0,0,1.00625,13.0813,151.441)"
font-family="Noto Sans" font-size="10" font-weight="400" font-style="normal" 
>
</g>

<g fill="none" stroke="#000000" stroke-opacity="1" stroke-width="1" stroke-linecap="square" stroke-linejoin="bevel" transform="matrix(1.00625,0,0,1.00625,13.0813,151.441)"
font-family="Noto Sans" font-size="10" font-weight="400" font-style="normal" 
>
</g>

<g fill="none" stroke="#000000" stroke-opacity="1" stroke-width="1" stroke-linecap="square" stroke-linejoin="bevel" transform="matrix(1.00625,0,0,1.00625,13.0813,151.441)"
font-family="Noto Sans" font-size="10" font-weight="400" font-style="normal" 
>
</g>

<g fill="none" stroke="#000000" stroke-opacity="1" stroke-width="1" stroke-linecap="square" stroke-linejoin="bevel" transform="matrix(1.00625,0,0,1.00625,13.0813,151.441)"
font-family="Sans" font-size="9" font-weight="400" font-style="normal" 
>
<text fill="#000000" fill-opacity="1" stroke="none" xml:space="preserve" x="0" y="0" font-family="Sans" font-size="9" font-weight="400" font-style="normal" 
 > 0.4</text>
</g>

<g fill="none" stroke="#000000" stroke-opacity="1" stroke-width="1" stroke-linecap="square" stroke-linejoin="bevel" transform="matrix(1.00625,0,0,1.00625,13.0813,151.441)"
font-family="Noto Sans" font-size="10" font-weight="400" font-style="normal" 
>
</g>

<g fill="none" stroke="#000000" stroke-opacity="1" stroke-width="1" stroke-linecap="square" stroke-linejoin="bevel" transform="matrix(1.00625,0,0,1.00625,0,0)"
font-family="Noto Sans" font-size="10" font-weight="400" font-style="normal" 
>
</g>

<g fill="none" stroke="#000000" stroke-opacity="1" stroke-width="1" stroke-linecap="round" stroke-linejoin="round" transform="matrix(1.00625,0,0,1.00625,0,0)"
font-family="Noto Sans" font-size="10" font-weight="400" font-style="normal" 
>
<polyline fill="none" vector-effect="none" points="39.5,102.5 45.5,102.5 " />
<polyline fill="none" vector-effect="none" points="621.5,102.5 615.5,102.5 " />
</g>

<g fill="none" stroke="#000000" stroke-opacity="1" stroke-width="1" stroke-linecap="square" stroke-linejoin="bevel" transform="matrix(1.00625,0,0,1.00625,0,0)"
font-family="Noto Sans" font-size="10" font-weight="400" font-style="normal" 
>
</g>

<g fill="none" stroke="#000000" stroke-opacity="1" stroke-width="1" stroke-linecap="square" stroke-linejoin="bevel" transform="matrix(1.00625,0,0,1.00625,13.0813,108.172)"
font-family="Noto Sans" font-size="10" font-weight="400" font-style="normal" 
>
</g>

<g fill="none" stroke="#000000" stroke-opacity="1" stroke-width="1" stroke-linecap="square" stroke-linejoin="bevel" transform="matrix(1.00625,0,0,1.00625,13.0813,108.172)"
font-family="Noto Sans" font-size="10" font-weight="400" font-style="normal" 
>
</g>

<g fill="none" stroke="#000000" stroke-opacity="1" stroke-width="1" stroke-linecap="square" stroke-linejoin="bevel" transform="matrix(1.00625,0,0,1.00625,13.0813,108.172)"
font-family="Noto Sans" font-size="10" font-weight="400" font-style="normal" 
>
</g>

<g fill="none" stroke="#000000" stroke-opacity="1" stroke-width="1" stroke-linecap="square" stroke-linejoin="bevel" transform="matrix(1.00625,0,0,1.00625,13.0813,108.172)"
font-family="Noto Sans" font-size="10" font-weight="400" font-style="normal" 
>
</g>

<g fill="none" stroke="#000000" stroke-opacity="1" stroke-width="1" stroke-linecap="square" stroke-linejoin="bevel" transform="matrix(1.00625,0,0,1.00625,13.0813,108.172)"
font-family="Noto Sans" font-size="10" font-weight="400" font-style="normal" 
>
</g>

<g fill="none" stroke="#000000" stroke-opacity="1" stroke-width="1" stroke-linecap="square" stroke-linejoin="bevel" transform="matrix(1.00625,0,0,1.00625,13.0813,108.172)"
font-family="Sans" font-size="9" font-weight="400" font-style="normal" 
>
<text fill="#000000" fill-opacity="1" stroke="none" xml:space="preserve" x="0" y="0" font-family="Sans" font-size="9" font-weight="400" font-style="normal" 
 > 0.6</text>
</g>

<g fill="none" stroke="#000000" stroke-opacity="1" stroke-width="1" stroke-linecap="square" stroke-linejoin="bevel" transform="matrix(1.00625,0,0,1.00625,13.0813,108.172)"
font-family="Noto Sans" font-size="10" font-weight="400" font-style="normal" 
>
</g>

<g fill="none" stroke="#000000" stroke-opacity="1" stroke-width="1" stroke-linecap="square" stroke-linejoin="bevel" transform="matrix(1.00625,0,0,1.00625,0,0)"
font-family="Noto Sans" font-size="10" font-weight="400" font-style="normal" 
>
</g>

<g fill="none" stroke="#000000" stroke-opacity="1" stroke-width="1" stroke-linecap="round" stroke-linejoin="round" transform="matrix(1.00625,0,0,1.00625,0,0)"
font-family="Noto Sans" font-size="10" font-weight="400" font-style="normal" 
>
<polyline fill="none" vector-effect="none" points="39.5,59.5 45.5,59.5 " />
<polyline fill="none" vector-effect="none" points="621.5,59.5 615.5,59.5 " />
</g>

<g fill="none" stroke="#000000" stroke-opacity="1" stroke-width="1" stroke-linecap="square" stroke-linejoin="bevel" transform="matrix(1.00625,0,0,1.00625,0,0)"
font-family="Noto Sans" font-size="10" font-weight="400" font-style="normal" 
>
</g>

<g fill="none" stroke="#000000" stroke-opacity="1" stroke-width="1" stroke-linecap="square" stroke-linejoin="bevel" transform="matrix(1.00625,0,0,1.00625,13.0813,64.9031)"
font-family="Noto Sans" font-size="10" font-weight="400" font-style="normal" 
>
</g>

<g fill="none" stroke="#000000" stroke-opacity="1" stroke-width="1" stroke-linecap="square" stroke-linejoin="bevel" transform="matrix(1.00625,0,0,1.00625,13.0813,64.9031)"
font-family="Noto Sans" font-size="10" font-weight="400" font-style="normal" 
>
</g>

<g fill="none" stroke="#000000" stroke-opacity="1" stroke-width="1" stroke-linecap="square" stroke-linejoin="bevel" transform="matrix(1.00625,0,0,1.00625,13.0813,64.9031)"
font-family="Noto Sans" font-size="10" font-weight="400" font-style="normal" 
>
</g>

<g fill="none" stroke="#000000" stroke-opacity="1" stroke-width="1" stroke-linecap="square" stroke-linejoin="bevel" transform="matrix(1.00625,0,0,1.00625,13.0813,64.9031)"
font-family="Noto Sans" font-size="10" font-weight="400" font-style="normal" 
>
</g>

<g fill="none" stroke="#000000" stroke-opacity="1" stroke-width="1" stroke-linecap="square" stroke-linejoin="bevel" transform="matrix(1.00625,0,0,1.00625,13.0813,64.9031)"
font-family="Noto Sans" font-size="10" font-weight="400" font-style="normal" 
>
</g>

<g fill="none" stroke="#000000" stroke-opacity="1" stroke-width="1" stroke-linecap="square" stroke-linejoin="bevel" transform="matrix(1.00625,0,0,1.00625,13.0813,64.9031)"
font-family="Sans" font-size="9" font-weight="400" font-style="normal" 
>
<text fill="#000000" fill-opacity="1" stroke="none" xml:space="preserve" x="0" y="0" font-family="Sans" font-size="9" font-weight="400" font-style="normal" 
 > 0.8</text>
</g>

<g fill="none" stroke="#000000" stroke-opacity="1" stroke-width="1" stroke-linecap="square" stroke-linejoin="bevel" transform="matrix(1.00625,0,0,1.00625,13.0813,64.9031)"
font-family="Noto Sans" font-size="10" font-weight="400" font-style="normal" 
>
</g>

<g fill="none" stroke="#000000" stroke-opacity="1" stroke-width="1" stroke-linecap="square" stroke-linejoin="bevel" transform="matrix(1.00625,0,0,1.00625,0,0)"
font-family="Noto Sans" font-size="10" font-weight="400" font-style="normal" 
>
</g>

<g fill="none" stroke="#000000" stroke-opacity="1" stroke-width="1" stroke-linecap="round" stroke-linejoin="round" transform="matrix(1.00625,0,0,1.00625,0,0)"
font-family="Noto Sans" font-size="10" font-weight="400" font-style="normal" 
>
<polyline fill="none" vector-effect="none" points="39.5,17.5 45.5,17.5 " />
<polyline fill="none" vector-effect="none" points="621.5,17.5 615.5,17.5 " />
</g>

<g fill="none" stroke="#000000" stroke-opacity="1" stroke-width="1" stroke-linecap="square" stroke-linejoin="bevel" transform="matrix(1.00625,0,0,1.00625,0,0)"
font-family="Noto Sans" font-size="10" font-weight="400" font-style="normal" 
>
</g>

<g fill="none" stroke="#000000" stroke-opacity="1" stroke-width="1" stroke-linecap="square" stroke-linejoin="bevel" transform="matrix(1.00625,0,0,1.00625,25.1563,21.6344)"
font-family="Noto Sans" font-size="10" font-weight="400" font-style="normal" 
>
</g>

<g fill="none" stroke="#000000" stroke-opacity="1" stroke-width="1" stroke-linecap="square" stroke-linejoin="bevel" transform="matrix(1.00625,0,0,1.00625,25.1563,21.6344)"
font-family="Noto Sans" font-size="10" font-weight="400" font-style="normal" 
>
</g>

<g fill="none" stroke="#000000" stroke-opacity="1" stroke-width="1" stroke-linecap="square" stroke-linejoin="bevel" transform="matrix(1.00625,0,0,1.00625,25.1563,21.6344)"
font-family="Noto Sans" font-size="10" font-weight="400" font-style="normal" 
>
</g>

<g fill="none" stroke="#000000" stroke-opacity="1" stroke-width="1" stroke-linecap="square" stroke-linejoin="bevel" transform="matrix(1.00625,0,0,1.00625,25.1563,21.6344)"
font-family="Noto Sans" font-size="10" font-weight="400" font-style="normal" 
>
</g>

<g fill="none" stroke="#000000" stroke-opacity="1" stroke-width="1" stroke-linecap="square" stroke-linejoin="bevel" transform="matrix(1.00625,0,0,1.00625,25.1563,21.6344)"
font-family="Noto Sans" font-size="10" font-weight="400" font-style="normal" 
>
</g>

<g fill="none" stroke="#000000" stroke-opacity="1" stroke-width="1" stroke-linecap="square" stroke-linejoin="bevel" transform="matrix(1.00625,0,0,1.00625,25.1563,21.6344)"
font-family="Sans" font-size="9" font-weight="400" font-style="normal" 
>
<text fill="#000000" fill-opacity="1" stroke="none" xml:space="preserve" x="0" y="0" font-family="Sans" font-size="9" font-weight="400" font-style="normal" 
 > 1</text>
</g>

<g fill="none" stroke="#000000" stroke-opacity="1" stroke-width="1" stroke-linecap="square" stroke-linejoin="bevel" transform="matrix(1.00625,0,0,1.00625,25.1563,21.6344)"
font-family="Noto Sans" font-size="10" font-weight="400" font-style="normal" 
>
</g>

<g fill="none" stroke="#000000" stroke-opacity="1" stroke-width="1" stroke-linecap="square" stroke-linejoin="bevel" transform="matrix(1.00625,0,0,1.00625,0,0)"
font-family="Noto Sans" font-size="10" font-weight="400" font-style="normal" 
>
</g>

<g fill="none" stroke="#000000" stroke-opacity="1" stroke-width="1" stroke-linecap="round" stroke-linejoin="round" transform="matrix(1.00625,0,0,1.00625,0,0)"
font-family="Noto Sans" font-size="10" font-weight="400" font-style="normal" 
>
<polyline fill="none" vector-effect="none" points="39.5,445.5 39.5,439.5 " />
<polyline fill="none" vector-effect="none" points="39.5,17.5 39.5,23.5 " />
</g>

<g fill="none" stroke="#000000" stroke-opacity="1" stroke-width="1" stroke-linecap="square" stroke-linejoin="bevel" transform="matrix(1.00625,0,0,1.00625,0,0)"
font-family="Noto Sans" font-size="10" font-weight="400" font-style="normal" 
>
</g>

<g fill="none" stroke="#000000" stroke-opacity="1" stroke-width="1" stroke-linecap="square" stroke-linejoin="bevel" transform="matrix(1.00625,0,0,1.00625,34.2125,470.422)"
font-family="Noto Sans" font-size="10" font-weight="400" font-style="normal" 
>
</g>

<g fill="none" stroke="#000000" stroke-opacity="1" stroke-width="1" stroke-linecap="square" stroke-linejoin="bevel" transform="matrix(1.00625,0,0,1.00625,34.2125,470.422)"
font-family="Noto Sans" font-size="10" font-weight="400" font-style="normal" 
>
</g>

<g fill="none" stroke="#000000" stroke-opacity="1" stroke-width="1" stroke-linecap="square" stroke-linejoin="bevel" transform="matrix(1.00625,0,0,1.00625,34.2125,470.422)"
font-family="Noto Sans" font-size="10" font-weight="400" font-style="normal" 
>
</g>

<g fill="none" stroke="#000000" stroke-opacity="1" stroke-width="1" stroke-linecap="square" stroke-linejoin="bevel" transform="matrix(1.00625,0,0,1.00625,34.2125,470.422)"
font-family="Noto Sans" font-size="10" font-weight="400" font-style="normal" 
>
</g>

<g fill="none" stroke="#000000" stroke-opacity="1" stroke-width="1" stroke-linecap="square" stroke-linejoin="bevel" transform="matrix(1.00625,0,0,1.00625,34.2125,470.422)"
font-family="Noto Sans" font-size="10" font-weight="400" font-style="normal" 
>
</g>

<g fill="none" stroke="#000000" stroke-opacity="1" stroke-width="1" stroke-linecap="square" stroke-linejoin="bevel" transform="matrix(1.00625,0,0,1.00625,34.2125,470.422)"
font-family="Sans" font-size="9" font-weight="400" font-style="normal" 
>
<text fill="#000000" fill-opacity="1" stroke="none" xml:space="preserve" x="0" y="0" font-family="Sans" font-size="9" font-weight="400" font-style="normal" 
 > 0</text>
</g>

<g fill="none" stroke="#000000" stroke-opacity="1" stroke-width="1" stroke-linecap="square" stroke-linejoin="bevel" transform="matrix(1.00625,0,0,1.00625,34.2125,470.422)"
font-family="Noto Sans" font-size="10" font-weight="400" font-style="normal" 
>
</g>

<g fill="none" stroke="#000000" stroke-opacity="1" stroke-width="1" stroke-linecap="square" stroke-linejoin="bevel" transform="matrix(1.00625,0,0,1.00625,0,0)"
font-family="Noto Sans" font-size="10" font-weight="400" font-style="normal" 
>
</g>

<g fill="none" stroke="#000000" stroke-opacity="1" stroke-width="1" stroke-linecap="round" stroke-linejoin="round" transform="matrix(1.00625,0,0,1.00625,0,0)"
font-family="Noto Sans" font-size="10" font-weight="400" font-style="normal" 
>
<polyline fill="none" vector-effect="none" points="155.5,445.5 155.5,439.5 " />
<polyline fill="none" vector-effect="none" points="155.5,17.5 155.5,23.5 " />
</g>

<g fill="none" stroke="#000000" stroke-opacity="1" stroke-width="1" stroke-linecap="square" stroke-linejoin="bevel" transform="matrix(1.00625,0,0,1.00625,0,0)"
font-family="Noto Sans" font-size="10" font-weight="400" font-style="normal" 
>
</g>

<g fill="none" stroke="#000000" stroke-opacity="1" stroke-width="1" stroke-linecap="square" stroke-linejoin="bevel" transform="matrix(1.00625,0,0,1.00625,152.95,470.422)"
font-family="Noto Sans" font-size="10" font-weight="400" font-style="normal" 
>
</g>

<g fill="none" stroke="#000000" stroke-opacity="1" stroke-width="1" stroke-linecap="square" stroke-linejoin="bevel" transform="matrix(1.00625,0,0,1.00625,152.95,470.422)"
font-family="Noto Sans" font-size="10" font-weight="400" font-style="normal" 
>
</g>

<g fill="none" stroke="#000000" stroke-opacity="1" stroke-width="1" stroke-linecap="square" stroke-linejoin="bevel" transform="matrix(1.00625,0,0,1.00625,152.95,470.422)"
font-family="Noto Sans" font-size="10" font-weight="400" font-style="normal" 
>
</g>

<g fill="none" stroke="#000000" stroke-opacity="1" stroke-width="1" stroke-linecap="square" stroke-linejoin="bevel" transform="matrix(1.00625,0,0,1.00625,152.95,470.422)"
font-family="Noto Sans" font-size="10" font-weight="400" font-style="normal" 
>
</g>

<g fill="none" stroke="#000000" stroke-opacity="1" stroke-width="1" stroke-linecap="square" stroke-linejoin="bevel" transform="matrix(1.00625,0,0,1.00625,152.95,470.422)"
font-family="Noto Sans" font-size="10" font-weight="400" font-style="normal" 
>
</g>

<g fill="none" stroke="#000000" stroke-opacity="1" stroke-width="1" stroke-linecap="square" stroke-linejoin="bevel" transform="matrix(1.00625,0,0,1.00625,152.95,470.422)"
font-family="Sans" font-size="9" font-weight="400" font-style="normal" 
>
<text fill="#000000" fill-opacity="1" stroke="none" xml:space="preserve" x="0" y="0" font-family="Sans" font-size="9" font-weight="400" font-style="normal" 
 > 1</text>
</g>

<g fill="none" stroke="#000000" stroke-opacity="1" stroke-width="1" stroke-linecap="square" stroke-linejoin="bevel" transform="matrix(1.00625,0,0,1.00625,152.95,470.422)"
font-family="Noto Sans" font-size="10" font-weight="400" font-style="normal" 
>
</g>

<g fill="none" stroke="#000000" stroke-opacity="1" stroke-width="1" stroke-linecap="square" stroke-linejoin="bevel" transform="matrix(1.00625,0,0,1.00625,0,0)"
font-family="Noto Sans" font-size="10" font-weight="400" font-style="normal" 
>
</g>

<g fill="none" stroke="#000000" stroke-opacity="1" stroke-width="1" stroke-linecap="round" stroke-linejoin="round" transform="matrix(1.00625,0,0,1.00625,0,0)"
font-family="Noto Sans" font-size="10" font-weight="400" font-style="normal" 
>
<polyline fill="none" vector-effect="none" points="272.5,445.5 272.5,439.5 " />
<polyline fill="none" vector-effect="none" points="272.5,17.5 272.5,23.5 " />
</g>

<g fill="none" stroke="#000000" stroke-opacity="1" stroke-width="1" stroke-linecap="square" stroke-linejoin="bevel" transform="matrix(1.00625,0,0,1.00625,0,0)"
font-family="Noto Sans" font-size="10" font-weight="400" font-style="normal" 
>
</g>

<g fill="none" stroke="#000000" stroke-opacity="1" stroke-width="1" stroke-linecap="square" stroke-linejoin="bevel" transform="matrix(1.00625,0,0,1.00625,268.669,470.422)"
font-family="Noto Sans" font-size="10" font-weight="400" font-style="normal" 
>
</g>

<g fill="none" stroke="#000000" stroke-opacity="1" stroke-width="1" stroke-linecap="square" stroke-linejoin="bevel" transform="matrix(1.00625,0,0,1.00625,268.669,470.422)"
font-family="Noto Sans" font-size="10" font-weight="400" font-style="normal" 
>
</g>

<g fill="none" stroke="#000000" stroke-opacity="1" stroke-width="1" stroke-linecap="square" stroke-linejoin="bevel" transform="matrix(1.00625,0,0,1.00625,268.669,470.422)"
font-family="Noto Sans" font-size="10" font-weight="400" font-style="normal" 
>
</g>

<g fill="none" stroke="#000000" stroke-opacity="1" stroke-width="1" stroke-linecap="square" stroke-linejoin="bevel" transform="matrix(1.00625,0,0,1.00625,268.669,470.422)"
font-family="Noto Sans" font-size="10" font-weight="400" font-style="normal" 
>
</g>

<g fill="none" stroke="#000000" stroke-opacity="1" stroke-width="1" stroke-linecap="square" stroke-linejoin="bevel" transform="matrix(1.00625,0,0,1.00625,268.669,470.422)"
font-family="Noto Sans" font-size="10" font-weight="400" font-style="normal" 
>
</g>

<g fill="none" stroke="#000000" stroke-opacity="1" stroke-width="1" stroke-linecap="square" stroke-linejoin="bevel" transform="matrix(1.00625,0,0,1.00625,268.669,470.422)"
font-family="Sans" font-size="9" font-weight="400" font-style="normal" 
>
<text fill="#000000" fill-opacity="1" stroke="none" xml:space="preserve" x="0" y="0" font-family="Sans" font-size="9" font-weight="400" font-style="normal" 
 > 2</text>
</g>

<g fill="none" stroke="#000000" stroke-opacity="1" stroke-width="1" stroke-linecap="square" stroke-linejoin="bevel" transform="matrix(1.00625,0,0,1.00625,268.669,470.422)"
font-family="Noto Sans" font-size="10" font-weight="400" font-style="normal" 
>
</g>

<g fill="none" stroke="#000000" stroke-opacity="1" stroke-width="1" stroke-linecap="square" stroke-linejoin="bevel" transform="matrix(1.00625,0,0,1.00625,0,0)"
font-family="Noto Sans" font-size="10" font-weight="400" font-style="normal" 
>
</g>

<g fill="none" stroke="#000000" stroke-opacity="1" stroke-width="1" stroke-linecap="round" stroke-linejoin="round" transform="matrix(1.00625,0,0,1.00625,0,0)"
font-family="Noto Sans" font-size="10" font-weight="400" font-style="normal" 
>
<polyline fill="none" vector-effect="none" points="388.5,445.5 388.5,439.5 " />
<polyline fill="none" vector-effect="none" points="388.5,17.5 388.5,23.5 " />
</g>

<g fill="none" stroke="#000000" stroke-opacity="1" stroke-width="1" stroke-linecap="square" stroke-linejoin="bevel" transform="matrix(1.00625,0,0,1.00625,0,0)"
font-family="Noto Sans" font-size="10" font-weight="400" font-style="normal" 
>
</g>

<g fill="none" stroke="#000000" stroke-opacity="1" stroke-width="1" stroke-linecap="square" stroke-linejoin="bevel" transform="matrix(1.00625,0,0,1.00625,386.4,470.422)"
font-family="Noto Sans" font-size="10" font-weight="400" font-style="normal" 
>
</g>

<g fill="none" stroke="#000000" stroke-opacity="1" stroke-width="1" stroke-linecap="square" stroke-linejoin="bevel" transform="matrix(1.00625,0,0,1.00625,386.4,470.422)"
font-family="Noto Sans" font-size="10" font-weight="400" font-style="normal" 
>
</g>

<g fill="none" stroke="#000000" stroke-opacity="1" stroke-width="1" stroke-linecap="square" stroke-linejoin="bevel" transform="matrix(1.00625,0,0,1.00625,386.4,470.422)"
font-family="Noto Sans" font-size="10" font-weight="400" font-style="normal" 
>
</g>

<g fill="none" stroke="#000000" stroke-opacity="1" stroke-width="1" stroke-linecap="square" stroke-linejoin="bevel" transform="matrix(1.00625,0,0,1.00625,386.4,470.422)"
font-family="Noto Sans" font-size="10" font-weight="400" font-style="normal" 
>
</g>

<g fill="none" stroke="#000000" stroke-opacity="1" stroke-width="1" stroke-linecap="square" stroke-linejoin="bevel" transform="matrix(1.00625,0,0,1.00625,386.4,470.422)"
font-family="Noto Sans" font-size="10" font-weight="400" font-style="normal" 
>
</g>

<g fill="none" stroke="#000000" stroke-opacity="1" stroke-width="1" stroke-linecap="square" stroke-linejoin="bevel" transform="matrix(1.00625,0,0,1.00625,386.4,470.422)"
font-family="Sans" font-size="9" font-weight="400" font-style="normal" 
>
<text fill="#000000" fill-opacity="1" stroke="none" xml:space="preserve" x="0" y="0" font-family="Sans" font-size="9" font-weight="400" font-style="normal" 
 > 3</text>
</g>

<g fill="none" stroke="#000000" stroke-opacity="1" stroke-width="1" stroke-linecap="square" stroke-linejoin="bevel" transform="matrix(1.00625,0,0,1.00625,386.4,470.422)"
font-family="Noto Sans" font-size="10" font-weight="400" font-style="normal" 
>
</g>

<g fill="none" stroke="#000000" stroke-opacity="1" stroke-width="1" stroke-linecap="square" stroke-linejoin="bevel" transform="matrix(1.00625,0,0,1.00625,0,0)"
font-family="Noto Sans" font-size="10" font-weight="400" font-style="normal" 
>
</g>

<g fill="none" stroke="#000000" stroke-opacity="1" stroke-width="1" stroke-linecap="round" stroke-linejoin="round" transform="matrix(1.00625,0,0,1.00625,0,0)"
font-family="Noto Sans" font-size="10" font-weight="400" font-style="normal" 
>
<polyline fill="none" vector-effect="none" points="505.5,445.5 505.5,439.5 " />
<polyline fill="none" vector-effect="none" points="505.5,17.5 505.5,23.5 " />
</g>

<g fill="none" stroke="#000000" stroke-opacity="1" stroke-width="1" stroke-linecap="square" stroke-linejoin="bevel" transform="matrix(1.00625,0,0,1.00625,0,0)"
font-family="Noto Sans" font-size="10" font-weight="400" font-style="normal" 
>
</g>

<g fill="none" stroke="#000000" stroke-opacity="1" stroke-width="1" stroke-linecap="square" stroke-linejoin="bevel" transform="matrix(1.00625,0,0,1.00625,503.125,470.422)"
font-family="Noto Sans" font-size="10" font-weight="400" font-style="normal" 
>
</g>

<g fill="none" stroke="#000000" stroke-opacity="1" stroke-width="1" stroke-linecap="square" stroke-linejoin="bevel" transform="matrix(1.00625,0,0,1.00625,503.125,470.422)"
font-family="Noto Sans" font-size="10" font-weight="400" font-style="normal" 
>
</g>

<g fill="none" stroke="#000000" stroke-opacity="1" stroke-width="1" stroke-linecap="square" stroke-linejoin="bevel" transform="matrix(1.00625,0,0,1.00625,503.125,470.422)"
font-family="Noto Sans" font-size="10" font-weight="400" font-style="normal" 
>
</g>

<g fill="none" stroke="#000000" stroke-opacity="1" stroke-width="1" stroke-linecap="square" stroke-linejoin="bevel" transform="matrix(1.00625,0,0,1.00625,503.125,470.422)"
font-family="Noto Sans" font-size="10" font-weight="400" font-style="normal" 
>
</g>

<g fill="none" stroke="#000000" stroke-opacity="1" stroke-width="1" stroke-linecap="square" stroke-linejoin="bevel" transform="matrix(1.00625,0,0,1.00625,503.125,470.422)"
font-family="Noto Sans" font-size="10" font-weight="400" font-style="normal" 
>
</g>

<g fill="none" stroke="#000000" stroke-opacity="1" stroke-width="1" stroke-linecap="square" stroke-linejoin="bevel" transform="matrix(1.00625,0,0,1.00625,503.125,470.422)"
font-family="Sans" font-size="9" font-weight="400" font-style="normal" 
>
<text fill="#000000" fill-opacity="1" stroke="none" xml:space="preserve" x="0" y="0" font-family="Sans" font-size="9" font-weight="400" font-style="normal" 
 > 4</text>
</g>

<g fill="none" stroke="#000000" stroke-opacity="1" stroke-width="1" stroke-linecap="square" stroke-linejoin="bevel" transform="matrix(1.00625,0,0,1.00625,503.125,470.422)"
font-family="Noto Sans" font-size="10" font-weight="400" font-style="normal" 
>
</g>

<g fill="none" stroke="#000000" stroke-opacity="1" stroke-width="1" stroke-linecap="square" stroke-linejoin="bevel" transform="matrix(1.00625,0,0,1.00625,0,0)"
font-family="Noto Sans" font-size="10" font-weight="400" font-style="normal" 
>
</g>

<g fill="none" stroke="#000000" stroke-opacity="1" stroke-width="1" stroke-linecap="round" stroke-linejoin="round" transform="matrix(1.00625,0,0,1.00625,0,0)"
font-family="Noto Sans" font-size="10" font-weight="400" font-style="normal" 
>
<polyline fill="none" vector-effect="none" points="621.5,445.5 621.5,439.5 " />
<polyline fill="none" vector-effect="none" points="621.5,17.5 621.5,23.5 " />
</g>

<g fill="none" stroke="#000000" stroke-opacity="1" stroke-width="1" stroke-linecap="square" stroke-linejoin="bevel" transform="matrix(1.00625,0,0,1.00625,0,0)"
font-family="Noto Sans" font-size="10" font-weight="400" font-style="normal" 
>
</g>

<g fill="none" stroke="#000000" stroke-opacity="1" stroke-width="1" stroke-linecap="square" stroke-linejoin="bevel" transform="matrix(1.00625,0,0,1.00625,620.856,470.422)"
font-family="Noto Sans" font-size="10" font-weight="400" font-style="normal" 
>
</g>

<g fill="none" stroke="#000000" stroke-opacity="1" stroke-width="1" stroke-linecap="square" stroke-linejoin="bevel" transform="matrix(1.00625,0,0,1.00625,620.856,470.422)"
font-family="Noto Sans" font-size="10" font-weight="400" font-style="normal" 
>
</g>

<g fill="none" stroke="#000000" stroke-opacity="1" stroke-width="1" stroke-linecap="square" stroke-linejoin="bevel" transform="matrix(1.00625,0,0,1.00625,620.856,470.422)"
font-family="Noto Sans" font-size="10" font-weight="400" font-style="normal" 
>
</g>

<g fill="none" stroke="#000000" stroke-opacity="1" stroke-width="1" stroke-linecap="square" stroke-linejoin="bevel" transform="matrix(1.00625,0,0,1.00625,620.856,470.422)"
font-family="Noto Sans" font-size="10" font-weight="400" font-style="normal" 
>
</g>

<g fill="none" stroke="#000000" stroke-opacity="1" stroke-width="1" stroke-linecap="square" stroke-linejoin="bevel" transform="matrix(1.00625,0,0,1.00625,620.856,470.422)"
font-family="Noto Sans" font-size="10" font-weight="400" font-style="normal" 
>
</g>

<g fill="none" stroke="#000000" stroke-opacity="1" stroke-width="1" stroke-linecap="square" stroke-linejoin="bevel" transform="matrix(1.00625,0,0,1.00625,620.856,470.422)"
font-family="Sans" font-size="9" font-weight="400" font-style="normal" 
>
<text fill="#000000" fill-opacity="1" stroke="none" xml:space="preserve" x="0" y="0" font-family="Sans" font-size="9" font-weight="400" font-style="normal" 
 > 5</text>
</g>

<g fill="none" stroke="#000000" stroke-opacity="1" stroke-width="1" stroke-linecap="square" stroke-linejoin="bevel" transform="matrix(1.00625,0,0,1.00625,620.856,470.422)"
font-family="Noto Sans" font-size="10" font-weight="400" font-style="normal" 
>
</g>

<g fill="none" stroke="#000000" stroke-opacity="1" stroke-width="1" stroke-linecap="square" stroke-linejoin="bevel" transform="matrix(1.00625,0,0,1.00625,0,0)"
font-family="Noto Sans" font-size="10" font-weight="400" font-style="normal" 
>
</g>

<g fill="none" stroke="#000000" stroke-opacity="1" stroke-width="1" stroke-linecap="round" stroke-linejoin="round" transform="matrix(1.00625,0,0,1.00625,0,0)"
font-family="Noto Sans" font-size="10" font-weight="400" font-style="normal" 
>
<polyline fill="none" vector-effect="none" points="39.5,17.5 39.5,445.5 621.5,445.5 621.5,17.5 39.5,17.5 " />
</g>

<g fill="none" stroke="#000000" stroke-opacity="1" stroke-width="1" stroke-linecap="square" stroke-linejoin="bevel" transform="matrix(1.00625,0,0,1.00625,0,0)"
font-family="Noto Sans" font-size="10" font-weight="400" font-style="normal" 
>
</g>

<g fill="none" stroke="#000000" stroke-opacity="1" stroke-width="1" stroke-linecap="square" stroke-linejoin="bevel" transform="matrix(1.00625,0,0,1.00625,526.269,36.7281)"
font-family="Noto Sans" font-size="10" font-weight="400" font-style="normal" 
>
</g>

<g fill="none" stroke="#000000" stroke-opacity="1" stroke-width="1" stroke-linecap="square" stroke-linejoin="bevel" transform="matrix(1.00625,0,0,1.00625,526.269,36.7281)"
font-family="Noto Sans" font-size="10" font-weight="400" font-style="normal" 
>
</g>

<g fill="none" stroke="#000000" stroke-opacity="1" stroke-width="1" stroke-linecap="square" stroke-linejoin="bevel" transform="matrix(1.00625,0,0,1.00625,526.269,36.7281)"
font-family="Noto Sans" font-size="10" font-weight="400" font-style="normal" 
>
</g>

<g fill="none" stroke="#000000" stroke-opacity="1" stroke-width="1" stroke-linecap="square" stroke-linejoin="bevel" transform="matrix(1.00625,0,0,1.00625,526.269,36.7281)"
font-family="Noto Sans" font-size="10" font-weight="400" font-style="normal" 
>
</g>

<g fill="none" stroke="#000000" stroke-opacity="1" stroke-width="1" stroke-linecap="square" stroke-linejoin="bevel" transform="matrix(1.00625,0,0,1.00625,526.269,36.7281)"
font-family="Noto Sans" font-size="10" font-weight="400" font-style="normal" 
>
</g>

<g fill="none" stroke="#000000" stroke-opacity="1" stroke-width="1" stroke-linecap="square" stroke-linejoin="bevel" transform="matrix(1.00625,0,0,1.00625,526.269,36.7281)"
font-family="Sans" font-size="9" font-weight="400" font-style="normal" 
>
<text fill="#000000" fill-opacity="1" stroke="none" xml:space="preserve" x="0" y="0" font-family="Sans" font-size="9" font-weight="400" font-style="normal" 
 >Sine(left)</text>
</g>

<g fill="none" stroke="#000000" stroke-opacity="1" stroke-width="1" stroke-linecap="square" stroke-linejoin="bevel" transform="matrix(1.00625,0,0,1.00625,526.269,36.7281)"
font-family="Noto Sans" font-size="10" font-weight="400" font-style="normal" 
>
</g>

<g fill="none" stroke="#000000" stroke-opacity="1" stroke-width="1" stroke-linecap="square" stroke-linejoin="bevel" transform="matrix(1.00625,0,0,1.00625,0,0)"
font-family="Noto Sans" font-size="10" font-weight="400" font-style="normal" 
>
</g>

<g fill="none" stroke="#9400d3" stroke-opacity="1" stroke-width="2" stroke-linecap="round" stroke-linejoin="round" transform="matrix(1.00625,0,0,1.00625,0,0)"
font-family="Noto Sans" font-size="10" font-weight="400" font-style="normal" 
>
<path vector-effect="none" fill-rule="evenodd" d="M579.5,32.5 L609.5,32.5"/>
</g>

<g fill="none" stroke="#000000" stroke-opacity="1" stroke-width="1" stroke-linecap="square" stroke-linejoin="bevel" transform="matrix(1.00625,0,0,1.00625,0,0)"
font-family="Noto Sans" font-size="10" font-weight="400" font-style="normal" 
>
</g>

<g fill="none" stroke="#000000" stroke-opacity="1" stroke-width="1" stroke-linecap="square" stroke-linejoin="bevel" transform="matrix(1.00625,0,0,1.00625,0,0)"
font-family="Noto Sans" font-size="10" font-weight="400" font-style="normal" 
>
</g>

<g fill="none" stroke="#000000" stroke-opacity="1" stroke-width="1" stroke-linecap="square" stroke-linejoin="bevel" transform="matrix(1.00625,0,0,1.00625,0,0)"
font-family="Noto Sans" font-size="10" font-weight="400" font-style="normal" 
>
</g>

<g fill="none" stroke="#000000" stroke-opacity="1" stroke-width="1" stroke-linecap="square" stroke-linejoin="bevel" transform="matrix(1.00625,0,0,1.00625,0,0)"
font-family="Noto Sans" font-size="10" font-weight="400" font-style="normal" 
>
</g>

<g fill="none" stroke="#9400d3" stroke-opacity="1" stroke-width="2" stroke-linecap="round" stroke-linejoin="round" transform="matrix(1.00625,0,0,1.00625,0,0)"
font-family="Noto Sans" font-size="10" font-weight="400" font-style="normal" 
>
<polyline fill="none" vector-effect="none" points="39,17 39,17 39.5,17.1 40,17.3 40.5,17.7 40.9,18.2 41.4,18.8 41.9,19.6 42.4,20.6 42.9,21.7 43.4,22.9 43.9,24.3 44.3,25.8 44.8,27.5 45.3,29.3 45.8,31.3 46.3,33.4 46.8,35.6 47.3,37.9 47.8,40.4 48.2,43 48.7,45.8 49.2,48.7 49.7,51.7 50.2,54.8 50.7,58 51.2,61.4 51.6,64.9 52.1,68.5 52.6,72.2 53.1,76 53.6,79.9 54.1,83.9 54.6,88.1 55,92.3 55.5,96.6 56,101 56.5,105.5 57,110.1 57.5,114.8 58,119.6 58.4,124.4 58.9,129.3 59.4,134.3 59.9,139.3 60.4,144.4 60.9,149.6 61.4,154.8 61.8,160.1 62.3,165.4 62.8,170.8 63.3,176.2 63.8,181.6 64.3,187.1 64.8,192.6 65.3,198.2 65.7,203.7 66.2,209.3 66.7,214.9 67.2,220.5 67.7,226.1 68.2,231.7 68.7,237.3 69.1,243 69.6,248.6 70.1,254.2 70.6,259.7 71.1,265.3 71.6,270.8 72.1,276.3 72.5,281.8 73,287.3 73.5,292.7 74,298 74.5,303.4 75,308.6 75.5,313.8 75.9,319 76.4,324.1 76.9,329.1 77.4,334.1 77.9,339 78.4,343.8 78.9,348.6 79.4,353.2 79.8,357.8 80.3,362.3 80.8,366.7 81.3,371 81.8,375.3 82.3,379.4 82.8,383.4 83.2,387.3 83.7,391.1 84.2,394.8 84.7,398.4 85.2,401.9 85.7,405.2 86.2,408.4 86.6,411.6 87.1,414.5 87.6,417.4 88.1,420.1 88.6,422.7 89.1,425.2 89.6,427.6 90,429.8 90.5,431.8 91,433.8 91.5,435.6 92,437.2 92.5,438.7 93,440.1 93.4,441.3 93.9,442.4 94.4,443.3 94.9,444.1 95.4,444.8 95.9,445.3 96.4,445.6 96.9,445.8 97.3,445.9 97.8,445.8 98.3,445.6 98.8,445.2 99.3,444.7 99.8,444 100.3,443.2 100.7,442.2 101.2,441.1 101.7,439.8 102.2,438.4 102.7,436.9 103.2,435.2 103.7,433.4 104.1,431.4 104.6,429.3 105.1,427.1 105.6,424.7 106.1,422.2 106.6,419.6 107.1,416.8 107.5,414 108,410.9 108.5,407.8 109,404.5 109.5,401.2 110,397.7 110.5,394.1 111,390.4 111.4,386.5 111.9,382.6 112.4,378.6 112.9,374.4 113.4,370.2 113.9,365.8 114.4,361.4 114.8,356.9 115.3,352.3 115.8,347.6 116.3,342.9 116.8,338 117.3,333.1 117.8,328.1 118.2,323.1 118.7,318 119.2,312.8 119.7,307.6 120.2,302.3 120.7,297 121.2,291.6 121.6,286.2 122.1,280.7 122.6,275.2 123.1,269.7 123.6,264.2 124.1,258.6 124.6,253 125,247.4 125.5,241.8 126,236.2 126.5,230.6 127,225 127.5,219.4 128,213.8 128.5,208.2 128.9,202.6 129.4,197 129.9,191.5 130.4,186 130.9,180.5 131.4,175.1 131.9,169.7 132.3,164.3 132.8,159 133.3,153.8 133.8,148.5 134.3,143.4 134.8,138.3 135.3,133.3 135.7,128.3 136.2,123.4 136.7,118.6 137.2,113.9 137.7,109.2 138.2,104.6 138.7,100.1 139.1,95.7 139.6,91.4 140.1,87.2 140.6,83.1 141.1,79.1 141.6,75.2 142.1,71.4 142.6,67.7 143,64.2 143.5,60.7 144,57.4 144.5,54.1 145,51 145.5,48.1 146,45.2 146.4,42.5 146.9,39.9 147.4,37.4 147.9,35.1 148.4,32.9 148.9,30.9 149.4,28.9 149.8,27.2 150.3,25.5 150.8,24 151.3,22.7 151.8,21.5 152.3,20.4 152.8,19.5 153.2,18.7 153.7,18.1 154.2,17.6 154.7,17.2 155.2,17 155.7,17 156.2,17.1 156.6,17.4 157.1,17.8 157.6,18.3 158.1,19 158.6,19.8 159.1,20.8 159.6,21.9 160.1,23.2 160.5,24.6 161,26.2 161.5,27.9 162,29.7 162.5,31.7 163,33.8 163.5,36 163.9,38.4 164.4,40.9 164.9,43.6 165.4,46.3 165.9,49.2 166.4,52.3 166.9,55.4 167.3,58.7 167.8,62.1 168.3,65.6 168.8,69.2 169.3,72.9 169.8,76.8 170.3,80.7 170.7,84.8 171.2,88.9 171.7,93.2 172.2,97.5 172.7,101.9 173.2,106.4 173.7,111.1 174.2,115.7 174.6,120.5 175.1,125.4 175.6,130.3 176.1,135.3 176.6,140.3 177.1,145.4 177.6,150.6 178,155.8 178.5,161.1 179,166.5 179.5,171.8 180,177.3 180.5,182.7 181,188.2 181.4,193.7 181.9,199.3 182.4,204.8 182.9,210.4 183.4,216 183.9,221.6 184.4,227.2 184.8,232.9 185.3,238.5 185.8,244.1 186.3,249.7 186.8,255.3 187.3,260.9 187.8,266.4 188.2,271.9 188.7,277.4 189.2,282.9 189.7,288.4 190.2,293.8 190.7,299.1 191.2,304.4 191.7,309.7 192.1,314.9 192.6,320 193.1,325.1 193.6,330.1 194.1,335.1 194.6,340 195.1,344.8 195.5,349.5 196,354.2 196.5,358.7 197,363.2 197.5,367.6 198,371.9 198.5,376.1 198.9,380.2 199.4,384.2 199.9,388.1 200.4,391.9 200.9,395.5 201.4,399.1 201.9,402.5 202.3,405.9 202.8,409.1 203.3,412.2 203.8,415.1 204.3,418 204.8,420.7 205.3,423.2 205.8,425.7 206.2,428 206.7,430.2 207.2,432.2 207.7,434.1 208.2,435.9 208.7,437.5 209.2,439 209.6,440.4 210.1,441.6 210.6,442.6 211.1,443.5 211.6,444.3 212.1,444.9 212.6,445.4 213,445.7 213.5,445.9 214,445.9 214.5,445.8 215,445.5 215.5,445.1 216,444.5 216.4,443.8 216.9,443 217.4,442 217.9,440.8 218.4,439.6 218.9,438.1 219.4,436.6 219.8,434.9 220.3,433 220.8,431 221.3,428.9 221.8,426.6 222.3,424.2 222.8,421.7 223.3,419.1 223.7,416.3 224.2,413.4 224.7,410.3 225.2,407.2 225.7,403.9 226.2,400.5 226.7,397 227.1,393.3 227.6,389.6 228.1,385.7 228.6,381.8 229.1,377.7 229.6,373.6 230.1,369.3 230.5,365 231,360.5 231.5,356 232,351.4 232.5,346.7 233,341.9 233.5,337 233.9,332.1 234.4,327.1 234.9,322.1 235.4,316.9 235.9,311.8 236.4,306.5 236.9,301.2 237.4,295.9 237.8,290.5 238.3,285.1 238.8,279.6 239.3,274.1 239.8,268.6 240.3,263.1 240.8,257.5 241.2,251.9 241.7,246.3 242.2,240.7 242.7,235.1 243.2,229.5 243.7,223.9 244.2,218.3 244.6,212.7 245.1,207.1 245.6,201.5 246.1,195.9 246.6,190.4 247.1,184.9 247.6,179.4 248,174 248.5,168.6 249,163.3 249.5,158 250,152.7 250.5,147.5 251,142.4 251.4,137.3 251.9,132.3 252.4,127.3 252.9,122.4 253.4,117.6 253.9,112.9 254.4,108.3 254.9,103.7 255.3,99.3 255.8,94.9 256.3,90.6 256.8,86.4 257.3,82.3 257.8,78.3 258.3,74.4 258.7,70.7 259.2,67 259.7,63.5 260.2,60 260.7,56.7 261.2,53.5 261.7,50.4 262.1,47.5 262.6,44.7 263.1,42 263.6,39.4 264.1,37 264.6,34.7 265.1,32.5 265.5,30.5 266,28.6 266.5,26.8 267,25.2 267.5,23.7 268,22.4 268.5,21.2 269,20.2 269.4,19.3 269.9,18.6 270.4,18 270.9,17.5 271.4,17.2 271.9,17 272.4,17 272.8,17.1 273.3,17.4 273.8,17.9 274.3,18.4 274.8,19.1 275.3,20 275.8,21 276.2,22.2 276.7,23.5 277.2,24.9 277.7,26.5 278.2,28.2 278.7,30.1 279.2,32.1 279.6,34.2 280.1,36.5 280.6,38.9 281.1,41.4 281.6,44.1 282.1,46.9 282.6,49.8 283,52.9 283.5,56.1 284,59.4 284.5,62.8 285,66.3 285.5,69.9 286,73.7 286.5,77.5 286.9,81.5 287.4,85.6 287.9,89.7 288.4,94 288.9,98.4 289.4,102.8 289.9,107.4 290.3,112 290.8,116.7 291.3,121.5 291.8,126.3 292.3,131.3 292.8,136.3 293.3,141.3 293.7,146.5 294.2,151.7 294.7,156.9 295.2,162.2 295.7,167.5 296.2,172.9 296.7,178.3 297.1,183.8 297.6,189.3 298.1,194.8 298.6,200.4 299.1,205.9 299.6,211.5 300.1,217.1 300.6,222.7 301,228.4 301.5,234 302,239.6 302.5,245.2 303,250.8 303.5,256.4 304,262 304.4,267.5 304.9,273 305.4,278.5 305.9,284 306.4,289.4 306.9,294.8 307.4,300.2 307.8,305.5 308.3,310.7 308.8,315.9 309.3,321 309.8,326.1 310.3,331.1 310.8,336.1 311.2,340.9 311.7,345.7 312.2,350.4 312.7,355.1 313.2,359.6 313.7,364.1 314.2,368.5 314.6,372.7 315.1,376.9 315.6,381 316.1,385 316.6,388.8 317.1,392.6 317.6,396.2 318.1,399.8 318.5,403.2 319,406.5 319.5,409.7 320,412.8 320.5,415.7 321,418.5 321.5,421.2 321.9,423.7 322.4,426.2 322.9,428.5 323.4,430.6 323.9,432.6 324.4,434.5 324.9,436.2 325.3,437.8 325.8,439.3 326.3,440.6 326.8,441.8 327.3,442.8 327.8,443.7 328.3,444.4 328.7,445 329.2,445.4 329.7,445.7 330.2,445.9 330.7,445.9 331.2,445.7 331.7,445.4 332.2,445 332.6,444.4 333.1,443.7 333.6,442.8 334.1,441.8 334.6,440.6 335.1,439.3 335.6,437.8 336,436.2 336.5,434.5 337,432.6 337.5,430.6 338,428.5 338.5,426.2 339,423.7 339.4,421.2 339.9,418.5 340.4,415.7 340.9,412.8 341.4,409.7 341.9,406.5 342.4,403.2 342.8,399.8 343.3,396.2 343.8,392.6 344.3,388.8 344.8,385 345.3,381 345.8,376.9 346.3,372.7 346.7,368.5 347.2,364.1 347.7,359.6 348.2,355.1 348.7,350.4 349.2,345.7 349.7,340.9 350.1,336.1 350.6,331.1 351.1,326.1 351.6,321 352.1,315.9 352.6,310.7 353.1,305.5 353.5,300.2 354,294.8 354.5,289.4 355,284 355.5,278.5 356,273 356.5,267.5 356.9,262 357.4,256.4 357.9,250.8 358.4,245.2 358.9,239.6 359.4,234 359.9,228.4 360.3,222.7 360.8,217.1 361.3,211.5 361.8,205.9 362.3,200.4 362.8,194.8 363.3,189.3 363.8,183.8 364.2,178.3 364.7,172.9 365.2,167.5 365.7,162.2 366.2,156.9 366.7,151.7 367.2,146.5 367.6,141.3 368.1,136.3 368.6,131.3 369.1,126.3 369.6,121.5 370.1,116.7 370.6,112 371,107.4 371.5,102.8 372,98.4 372.5,94 373,89.7 373.5,85.6 374,81.5 374.4,77.5 374.9,73.7 375.4,69.9 375.9,66.3 376.4,62.8 376.9,59.4 377.4,56.1 377.9,52.9 378.3,49.8 378.8,46.9 379.3,44.1 379.8,41.4 380.3,38.9 380.8,36.5 381.3,34.2 381.7,32.1 382.2,30.1 382.7,28.2 383.2,26.5 383.7,24.9 384.2,23.5 384.7,22.2 385.1,21 385.6,20 386.1,19.1 386.6,18.4 387.1,17.9 387.6,17.4 388.1,17.1 388.5,17 389,17 389.5,17.2 390,17.5 390.5,18 391,18.6 391.5,19.3 391.9,20.2 392.4,21.2 392.9,22.4 393.4,23.7 393.9,25.2 394.4,26.8 394.9,28.6 395.4,30.5 395.8,32.5 396.3,34.7 396.8,37 397.3,39.4 397.8,42 398.3,44.7 398.8,47.5 399.2,50.4 399.7,53.5 400.2,56.7 400.7,60 401.2,63.5 401.7,67 402.2,70.7 402.6,74.4 403.1,78.3 403.6,82.3 404.1,86.4 404.6,90.6 405.1,94.9 405.6,99.3 406,103.7 406.5,108.3 407,112.9 407.5,117.6 408,122.4 408.5,127.3 409,132.3 409.5,137.3 409.9,142.4 410.4,147.5 410.9,152.7 411.4,158 411.9,163.3 412.4,168.6 412.9,174 413.3,179.4 413.8,184.9 414.3,190.4 414.8,195.9 415.3,201.5 415.8,207.1 416.3,212.7 416.7,218.3 417.2,223.9 417.7,229.5 418.2,235.1 418.7,240.7 419.2,246.3 419.7,251.9 420.1,257.5 420.6,263.1 421.1,268.6 421.6,274.1 422.1,279.6 422.6,285.1 423.1,290.5 423.5,295.9 424,301.2 424.5,306.5 425,311.8 425.5,316.9 426,322.1 426.5,327.1 427,332.1 427.4,337 427.9,341.9 428.4,346.7 428.9,351.4 429.4,356 429.9,360.5 430.4,365 430.8,369.3 431.3,373.6 431.8,377.7 432.3,381.8 432.8,385.7 433.3,389.6 433.8,393.3 434.2,397 434.7,400.5 435.2,403.9 435.7,407.2 436.2,410.3 436.7,413.4 437.2,416.3 437.6,419.1 438.1,421.7 438.6,424.2 439.1,426.6 439.6,428.9 440.1,431 440.6,433 441.1,434.9 441.5,436.6 442,438.1 442.5,439.6 443,440.8 443.5,442 444,443 444.5,443.8 444.9,444.5 445.4,445.1 445.9,445.5 446.4,445.8 446.9,445.9 447.4,445.9 447.9,445.7 448.3,445.4 448.8,444.9 449.3,444.3 449.8,443.5 450.3,442.6 450.8,441.6 451.3,440.4 451.7,439 452.2,437.5 452.7,435.9 453.2,434.1 453.7,432.2 454.2,430.2 454.7,428 455.1,425.7 455.6,423.2 456.1,420.7 456.6,418 457.1,415.1 457.6,412.2 458.1,409.1 458.6,405.9 459,402.5 459.5,399.1 460,395.5 460.5,391.9 461,388.1 461.5,384.2 462,380.2 462.4,376.1 462.9,371.9 463.4,367.6 463.9,363.2 464.4,358.7 464.9,354.2 465.4,349.5 465.8,344.8 466.3,340 466.8,335.1 467.3,330.1 467.8,325.1 468.3,320 468.8,314.9 469.2,309.7 469.7,304.4 470.2,299.1 470.7,293.8 471.2,288.4 471.7,282.9 472.2,277.4 472.7,271.9 473.1,266.4 473.6,260.9 474.1,255.3 474.6,249.7 475.1,244.1 475.6,238.5 476.1,232.9 476.5,227.2 477,221.6 477.5,216 478,210.4 478.5,204.8 479,199.3 479.5,193.7 479.9,188.2 480.4,182.7 480.9,177.3 481.4,171.8 481.9,166.5 482.4,161.1 482.9,155.8 483.3,150.6 483.8,145.4 484.3,140.3 484.8,135.3 485.3,130.3 485.8,125.4 486.3,120.5 486.7,115.7 487.2,111.1 487.7,106.4 488.2,101.9 488.7,97.5 489.2,93.2 489.7,88.9 490.2,84.8 490.6,80.7 491.1,76.8 491.6,72.9 492.1,69.2 492.6,65.6 493.1,62.1 493.6,58.7 494,55.4 494.5,52.3 495,49.2 495.5,46.3 496,43.6 496.5,40.9 497,38.4 497.4,36 497.9,33.8 498.4,31.7 498.9,29.7 499.4,27.9 499.9,26.2 500.4,24.6 500.8,23.2 501.3,21.9 501.8,20.8 502.3,19.8 502.8,19 503.3,18.3 503.8,17.8 504.3,17.4 504.7,17.1 505.2,17 505.7,17 506.2,17.2 506.7,17.6 507.2,18.1 507.7,18.7 508.1,19.5 508.6,20.4 509.1,21.5 509.6,22.7 510.1,24 510.6,25.5 511.1,27.2 511.5,28.9 512,30.9 512.5,32.9 513,35.1 513.5,37.4 514,39.9 514.5,42.5 514.9,45.2 515.4,48.1 515.9,51 516.4,54.1 516.9,57.4 517.4,60.7 517.9,64.2 518.3,67.7 518.8,71.4 519.3,75.2 519.8,79.1 520.3,83.1 520.8,87.2 521.3,91.4 521.8,95.7 522.2,100.1 522.7,104.6 523.2,109.2 523.7,113.9 524.2,118.6 524.7,123.4 525.2,128.3 525.6,133.3 526.1,138.3 526.6,143.4 527.1,148.5 527.6,153.8 528.1,159 528.6,164.3 529,169.7 529.5,175.1 530,180.5 530.5,186 531,191.5 531.5,197 532,202.6 532.4,208.2 532.9,213.8 533.4,219.4 533.9,225 534.4,230.6 534.9,236.2 535.4,241.8 535.9,247.4 536.3,253 536.8,258.6 537.3,264.2 537.8,269.7 538.3,275.2 538.8,280.7 539.3,286.2 539.7,291.6 540.2,297 540.7,302.3 541.2,307.6 541.7,312.8 542.2,318 542.7,323.1 543.1,328.1 543.6,333.1 544.1,338 544.6,342.9 545.1,347.6 545.6,352.3 546.1,356.9 546.5,361.4 547,365.8 547.5,370.2 548,374.4 548.5,378.6 549,382.6 549.5,386.5 549.9,390.4 550.4,394.1 550.9,397.7 551.4,401.2 551.9,404.5 552.4,407.8 552.9,410.9 553.4,414 553.8,416.8 554.3,419.6 554.8,422.2 555.3,424.7 555.8,427.1 556.3,429.3 556.8,431.4 557.2,433.4 557.7,435.2 558.2,436.9 558.7,438.4 559.2,439.8 559.7,441.1 560.2,442.2 560.6,443.2 561.1,444 561.6,444.7 562.1,445.2 562.6,445.6 563.1,445.8 563.6,445.9 564,445.8 564.5,445.6 565,445.3 565.5,444.8 566,444.1 566.5,443.3 567,442.4 567.5,441.3 567.9,440.1 568.4,438.7 568.9,437.2 569.4,435.6 569.9,433.8 570.4,431.8 570.9,429.8 571.3,427.6 571.8,425.2 572.3,422.7 572.8,420.1 573.3,417.4 573.8,414.5 574.3,411.6 574.7,408.4 575.2,405.2 575.7,401.9 576.2,398.4 576.7,394.8 577.2,391.1 577.7,387.3 578.1,383.4 578.6,379.4 579.1,375.3 579.6,371 580.1,366.7 580.6,362.3 581.1,357.8 581.5,353.2 582,348.6 582.5,343.8 583,339 583.5,334.1 584,329.1 584.5,324.1 585,319 585.4,313.8 585.9,308.6 586.4,303.4 586.9,298 587.4,292.7 587.9,287.3 588.4,281.8 588.8,276.3 589.3,270.8 589.8,265.3 590.3,259.7 590.8,254.2 591.3,248.6 591.8,243 592.2,237.3 592.7,231.7 593.2,226.1 593.7,220.5 594.2,214.9 594.7,209.3 595.2,203.7 595.6,198.2 596.1,192.6 596.6,187.1 597.1,181.6 597.6,176.2 598.1,170.8 598.6,165.4 599.1,160.1 599.5,154.8 600,149.6 600.5,144.4 601,139.3 601.5,134.3 602,129.3 602.5,124.4 602.9,119.6 603.4,114.8 603.9,110.1 604.4,105.5 604.9,101 605.4,96.6 605.9,92.3 606.3,88.1 606.8,83.9 607.3,79.9 607.8,76 608.3,72.2 608.8,68.5 609.3,64.9 609.7,61.4 610.2,58 610.7,54.8 611.2,51.7 611.7,48.7 612.2,45.8 612.7,43 613.1,40.4 613.6,37.9 614.1,35.6 614.6,33.4 615.1,31.3 615.6,29.3 616.1,27.5 616.6,25.8 617,24.3 617.5,22.9 618,21.7 618.5,20.6 619,19.6 619.5,18.8 620,18.2 620.4,17.7 620.9,17.3 621.4,17.1 621.9,17 " />
</g>

<g fill="none" stroke="#000000" stroke-opacity="1" stroke-width="1" stroke-linecap="square" stroke-linejoin="bevel" transform="matrix(1.00625,0,0,1.00625,0,0)"
font-family="Noto Sans" font-size="10" font-weight="400" font-style="normal" 
>
</g>

<g fill="none" stroke="#000000" stroke-opacity="1" stroke-width="1" stroke-linecap="square" stroke-linejoin="bevel" transform="matrix(1.00625,0,0,1.00625,503.125,53.8344)"
font-family="Noto Sans" font-size="10" font-weight="400" font-style="normal" 
>
</g>

<g fill="none" stroke="#000000" stroke-opacity="1" stroke-width="1" stroke-linecap="square" stroke-linejoin="bevel" transform="matrix(1.00625,0,0,1.00625,503.125,53.8344)"
font-family="Noto Sans" font-size="10" font-weight="400" font-style="normal" 
>
</g>

<g fill="none" stroke="#000000" stroke-opacity="1" stroke-width="1" stroke-linecap="square" stroke-linejoin="bevel" transform="matrix(1.00625,0,0,1.00625,503.125,53.8344)"
font-family="Noto Sans" font-size="10" font-weight="400" font-style="normal" 
>
</g>

<g fill="none" stroke="#000000" stroke-opacity="1" stroke-width="1" stroke-linecap="square" stroke-linejoin="bevel" transform="matrix(1.00625,0,0,1.00625,503.125,53.8344)"
font-family="Noto Sans" font-size="10" font-weight="400" font-style="normal" 
>
</g>

<g fill="none" stroke="#000000" stroke-opacity="1" stroke-width="1" stroke-linecap="square" stroke-linejoin="bevel" transform="matrix(1.00625,0,0,1.00625,503.125,53.8344)"
font-family="Noto Sans" font-size="10" font-weight="400" font-style="normal" 
>
</g>

<g fill="none" stroke="#000000" stroke-opacity="1" stroke-width="1" stroke-linecap="square" stroke-linejoin="bevel" transform="matrix(1.00625,0,0,1.00625,503.125,53.8344)"
font-family="Sans" font-size="9" font-weight="400" font-style="normal" 
>
<text fill="#000000" fill-opacity="1" stroke="none" xml:space="preserve" x="0" y="0" font-family="Sans" font-size="9" font-weight="400" font-style="normal" 
 >Staight(right)</text>
</g>

<g fill="none" stroke="#000000" stroke-opacity="1" stroke-width="1" stroke-linecap="square" stroke-linejoin="bevel" transform="matrix(1.00625,0,0,1.00625,503.125,53.8344)"
font-family="Noto Sans" font-size="10" font-weight="400" font-style="normal" 
>
</g>

<g fill="none" stroke="#000000" stroke-opacity="1" stroke-width="1" stroke-linecap="square" stroke-linejoin="bevel" transform="matrix(1.00625,0,0,1.00625,0,0)"
font-family="Noto Sans" font-size="10" font-weight="400" font-style="normal" 
>
</g>

<g fill="none" stroke="#009e73" stroke-opacity="1" stroke-width="2" stroke-linecap="round" stroke-linejoin="round" transform="matrix(1.00625,0,0,1.00625,0,0)"
font-family="Noto Sans" font-size="10" font-weight="400" font-style="normal" 
>
<path vector-effect="none" fill-rule="evenodd" d="M579.5,49.5 L609.5,49.5"/>
</g>

<g fill="none" stroke="#000000" stroke-opacity="1" stroke-width="1" stroke-linecap="square" stroke-linejoin="bevel" transform="matrix(1.00625,0,0,1.00625,0,0)"
font-family="Noto Sans" font-size="10" font-weight="400" font-style="normal" 
>
</g>

<g fill="none" stroke="#000000" stroke-opacity="1" stroke-width="1" stroke-linecap="square" stroke-linejoin="bevel" transform="matrix(1.00625,0,0,1.00625,0,0)"
font-family="Noto Sans" font-size="10" font-weight="400" font-style="normal" 
>
</g>

<g fill="none" stroke="#000000" stroke-opacity="1" stroke-width="1" stroke-linecap="square" stroke-linejoin="bevel" transform="matrix(1.00625,0,0,1.00625,0,0)"
font-family="Noto Sans" font-size="10" font-weight="400" font-style="normal" 
>
</g>

<g fill="none" stroke="#000000" stroke-opacity="1" stroke-width="1" stroke-linecap="square" stroke-linejoin="bevel" transform="matrix(1.00625,0,0,1.00625,0,0)"
font-family="Noto Sans" font-size="10" font-weight="400" font-style="normal" 
>
</g>

<g fill="none" stroke="#009e73" stroke-opacity="1" stroke-width="2" stroke-linecap="round" stroke-linejoin="round" transform="matrix(1.00625,0,0,1.00625,0,0)"
font-family="Noto Sans" font-size="10" font-weight="400" font-style="normal" 
>
<polyline fill="none" vector-effect="none" points="39,445.9 39,445.9 39.5,445.5 40,445.2 40.5,444.8 40.9,444.5 41.4,444.1 41.9,443.8 42.4,443.4 42.9,443 43.4,442.7 43.9,442.3 44.3,442 44.8,441.6 45.3,441.2 45.8,440.9 46.3,440.5 46.8,440.2 47.3,439.8 47.8,439.5 48.2,439.1 48.7,438.7 49.2,438.4 49.7,438 50.2,437.7 50.7,437.3 51.2,437 51.6,436.6 52.1,436.2 52.6,435.9 53.1,435.5 53.6,435.2 54.1,434.8 54.6,434.5 55,434.1 55.5,433.7 56,433.4 56.5,433 57,432.7 57.5,432.3 58,431.9 58.4,431.6 58.9,431.2 59.4,430.9 59.9,430.5 60.4,430.2 60.9,429.8 61.4,429.4 61.8,429.1 62.3,428.7 62.8,428.4 63.3,428 63.8,427.7 64.3,427.3 64.8,426.9 65.3,426.6 65.7,426.2 66.2,425.9 66.7,425.5 67.2,425.2 67.7,424.8 68.2,424.4 68.7,424.1 69.1,423.7 69.6,423.4 70.1,423 70.6,422.6 71.1,422.3 71.6,421.9 72.1,421.6 72.5,421.2 73,420.9 73.5,420.5 74,420.1 74.5,419.8 75,419.4 75.5,419.1 75.9,418.7 76.4,418.4 76.9,418 77.4,417.6 77.9,417.3 78.4,416.9 78.9,416.6 79.4,416.2 79.8,415.9 80.3,415.5 80.8,415.1 81.3,414.8 81.8,414.4 82.3,414.1 82.8,413.7 83.2,413.3 83.7,413 84.2,412.6 84.7,412.3 85.2,411.9 85.7,411.6 86.2,411.2 86.6,410.8 87.1,410.5 87.6,410.1 88.1,409.8 88.6,409.4 89.1,409.1 89.6,408.7 90,408.3 90.5,408 91,407.6 91.5,407.3 92,406.9 92.5,406.6 93,406.2 93.4,405.8 93.9,405.5 94.4,405.1 94.9,404.8 95.4,404.4 95.9,404 96.4,403.7 96.9,403.3 97.3,403 97.8,402.6 98.3,402.3 98.8,401.9 99.3,401.5 99.8,401.2 100.3,400.8 100.7,400.5 101.2,400.1 101.7,399.8 102.2,399.4 102.7,399 103.2,398.7 103.7,398.3 104.1,398 104.6,397.6 105.1,397.3 105.6,396.9 106.1,396.5 106.6,396.2 107.1,395.8 107.5,395.5 108,395.1 108.5,394.7 109,394.4 109.5,394 110,393.7 110.5,393.3 111,393 111.4,392.6 111.9,392.2 112.4,391.9 112.9,391.5 113.4,391.2 113.9,390.8 114.4,390.5 114.8,390.1 115.3,389.7 115.8,389.4 116.3,389 116.8,388.7 117.3,388.3 117.8,388 118.2,387.6 118.7,387.2 119.2,386.9 119.7,386.5 120.2,386.2 120.7,385.8 121.2,385.4 121.6,385.1 122.1,384.7 122.6,384.4 123.1,384 123.6,383.7 124.1,383.3 124.6,382.9 125,382.6 125.5,382.2 126,381.9 126.5,381.5 127,381.2 127.5,380.8 128,380.4 128.5,380.1 128.9,379.7 129.4,379.4 129.9,379 130.4,378.6 130.9,378.3 131.4,377.9 131.9,377.6 132.3,377.2 132.8,376.9 133.3,376.5 133.8,376.1 134.3,375.8 134.8,375.4 135.3,375.1 135.7,374.7 136.2,374.4 136.7,374 137.2,373.6 137.7,373.3 138.2,372.9 138.7,372.6 139.1,372.2 139.6,371.9 140.1,371.5 140.6,371.1 141.1,370.8 141.6,370.4 142.1,370.1 142.6,369.7 143,369.3 143.5,369 144,368.6 144.5,368.3 145,367.9 145.5,367.6 146,367.2 146.4,366.8 146.9,366.5 147.4,366.1 147.9,365.8 148.4,365.4 148.9,365.1 149.4,364.7 149.8,364.3 150.3,364 150.8,363.6 151.3,363.3 151.8,362.9 152.3,362.6 152.8,362.2 153.2,361.8 153.7,361.5 154.2,361.1 154.7,360.8 155.2,360.4 155.7,360 156.2,359.7 156.6,359.3 157.1,359 157.6,358.6 158.1,358.3 158.6,357.9 159.1,357.5 159.6,357.2 160.1,356.8 160.5,356.5 161,356.1 161.5,355.8 162,355.4 162.5,355 163,354.7 163.5,354.3 163.9,354 164.4,353.6 164.9,353.3 165.4,352.9 165.9,352.5 166.4,352.2 166.9,351.8 167.3,351.5 167.8,351.1 168.3,350.7 168.8,350.4 169.3,350 169.8,349.7 170.3,349.3 170.7,349 171.2,348.6 171.7,348.2 172.2,347.9 172.7,347.5 173.2,347.2 173.7,346.8 174.2,346.5 174.6,346.1 175.1,345.7 175.6,345.4 176.1,345 176.6,344.7 177.1,344.3 177.6,344 178,343.6 178.5,343.2 179,342.9 179.5,342.5 180,342.2 180.5,341.8 181,341.4 181.4,341.1 181.9,340.7 182.4,340.4 182.9,340 183.4,339.7 183.9,339.3 184.4,338.9 184.8,338.6 185.3,338.2 185.8,337.9 186.3,337.5 186.8,337.2 187.3,336.8 187.8,336.4 188.2,336.1 188.7,335.7 189.2,335.4 189.7,335 190.2,334.7 190.7,334.3 191.2,333.9 191.7,333.6 192.1,333.2 192.6,332.9 193.1,332.5 193.6,332.1 194.1,331.8 194.6,331.4 195.1,331.1 195.5,330.7 196,330.4 196.5,330 197,329.6 197.5,329.3 198,328.9 198.5,328.6 198.9,328.2 199.4,327.9 199.9,327.5 200.4,327.1 200.9,326.8 201.4,326.4 201.9,326.1 202.3,325.7 202.8,325.4 203.3,325 203.8,324.6 204.3,324.3 204.8,323.9 205.3,323.6 205.8,323.2 206.2,322.8 206.7,322.5 207.2,322.1 207.7,321.8 208.2,321.4 208.7,321.1 209.2,320.7 209.6,320.3 210.1,320 210.6,319.6 211.1,319.3 211.6,318.9 212.1,318.6 212.6,318.2 213,317.8 213.5,317.5 214,317.1 214.5,316.8 215,316.4 215.5,316 216,315.7 216.4,315.3 216.9,315 217.4,314.6 217.9,314.3 218.4,313.9 218.9,313.5 219.4,313.2 219.8,312.8 220.3,312.5 220.8,312.1 221.3,311.8 221.8,311.4 222.3,311 222.8,310.7 223.3,310.3 223.7,310 224.2,309.6 224.7,309.3 225.2,308.9 225.7,308.5 226.2,308.2 226.7,307.8 227.1,307.5 227.6,307.1 228.1,306.7 228.6,306.4 229.1,306 229.6,305.7 230.1,305.3 230.5,305 231,304.6 231.5,304.2 232,303.9 232.5,303.5 233,303.2 233.5,302.8 233.9,302.5 234.4,302.1 234.9,301.7 235.4,301.4 235.9,301 236.4,300.7 236.9,300.3 237.4,300 237.8,299.6 238.3,299.2 238.8,298.9 239.3,298.5 239.8,298.2 240.3,297.8 240.8,297.4 241.2,297.1 241.7,296.7 242.2,296.4 242.7,296 243.2,295.7 243.7,295.3 244.2,294.9 244.6,294.6 245.1,294.2 245.6,293.9 246.1,293.5 246.6,293.2 247.1,292.8 247.6,292.4 248,292.1 248.5,291.7 249,291.4 249.5,291 250,290.7 250.5,290.3 251,289.9 251.4,289.6 251.9,289.2 252.4,288.9 252.9,288.5 253.4,288.1 253.9,287.8 254.4,287.4 254.9,287.1 255.3,286.7 255.8,286.4 256.3,286 256.8,285.6 257.3,285.3 257.8,284.9 258.3,284.6 258.7,284.2 259.2,283.9 259.7,283.5 260.2,283.1 260.7,282.8 261.2,282.4 261.7,282.1 262.1,281.7 262.6,281.4 263.1,281 263.6,280.6 264.1,280.3 264.6,279.9 265.1,279.6 265.5,279.2 266,278.8 266.5,278.5 267,278.1 267.5,277.8 268,277.4 268.5,277.1 269,276.7 269.4,276.3 269.9,276 270.4,275.6 270.9,275.3 271.4,274.9 271.9,274.6 272.4,274.2 272.8,273.8 273.3,273.5 273.8,273.1 274.3,272.8 274.8,272.4 275.3,272.1 275.8,271.7 276.2,271.3 276.7,271 277.2,270.6 277.7,270.3 278.2,269.9 278.7,269.5 279.2,269.2 279.6,268.8 280.1,268.5 280.6,268.1 281.1,267.8 281.6,267.4 282.1,267 282.6,266.7 283,266.3 283.5,266 284,265.6 284.5,265.3 285,264.9 285.5,264.5 286,264.2 286.5,263.8 286.9,263.5 287.4,263.1 287.9,262.8 288.4,262.4 288.9,262 289.4,261.7 289.9,261.3 290.3,261 290.8,260.6 291.3,260.2 291.8,259.9 292.3,259.5 292.8,259.2 293.3,258.8 293.7,258.5 294.2,258.1 294.7,257.7 295.2,257.4 295.7,257 296.2,256.7 296.7,256.3 297.1,256 297.6,255.6 298.1,255.2 298.6,254.9 299.1,254.5 299.6,254.2 300.1,253.8 300.6,253.4 301,253.1 301.5,252.7 302,252.4 302.5,252 303,251.7 303.5,251.3 304,250.9 304.4,250.6 304.9,250.2 305.4,249.9 305.9,249.5 306.4,249.2 306.9,248.8 307.4,248.4 307.8,248.1 308.3,247.7 308.8,247.4 309.3,247 309.8,246.7 310.3,246.3 310.8,245.9 311.2,245.6 311.7,245.2 312.2,244.9 312.7,244.5 313.2,244.1 313.7,243.8 314.2,243.4 314.6,243.1 315.1,242.7 315.6,242.4 316.1,242 316.6,241.6 317.1,241.3 317.6,240.9 318.1,240.6 318.5,240.2 319,239.9 319.5,239.5 320,239.1 320.5,238.8 321,238.4 321.5,238.1 321.9,237.7 322.4,237.4 322.9,237 323.4,236.6 323.9,236.3 324.4,235.9 324.9,235.6 325.3,235.2 325.8,234.8 326.3,234.5 326.8,234.1 327.3,233.8 327.8,233.4 328.3,233.1 328.7,232.7 329.2,232.3 329.7,232 330.2,231.6 330.7,231.3 331.2,230.9 331.7,230.6 332.2,230.2 332.6,229.8 333.1,229.5 333.6,229.1 334.1,228.8 334.6,228.4 335.1,228.1 335.6,227.7 336,227.3 336.5,227 337,226.6 337.5,226.3 338,225.9 338.5,225.5 339,225.2 339.4,224.8 339.9,224.5 340.4,224.1 340.9,223.8 341.4,223.4 341.9,223 342.4,222.7 342.8,222.3 343.3,222 343.8,221.6 344.3,221.3 344.8,220.9 345.3,220.5 345.8,220.2 346.3,219.8 346.7,219.5 347.2,219.1 347.7,218.8 348.2,218.4 348.7,218 349.2,217.7 349.7,217.3 350.1,217 350.6,216.6 351.1,216.2 351.6,215.9 352.1,215.5 352.6,215.2 353.1,214.8 353.5,214.5 354,214.1 354.5,213.7 355,213.4 355.5,213 356,212.7 356.5,212.3 356.9,212 357.4,211.6 357.9,211.2 358.4,210.9 358.9,210.5 359.4,210.2 359.9,209.8 360.3,209.5 360.8,209.1 361.3,208.7 361.8,208.4 362.3,208 362.8,207.7 363.3,207.3 363.8,206.9 364.2,206.6 364.7,206.2 365.2,205.9 365.7,205.5 366.2,205.2 366.7,204.8 367.2,204.4 367.6,204.1 368.1,203.7 368.6,203.4 369.1,203 369.6,202.7 370.1,202.3 370.6,201.9 371,201.6 371.5,201.2 372,200.9 372.5,200.5 373,200.1 373.5,199.8 374,199.4 374.4,199.1 374.9,198.7 375.4,198.4 375.9,198 376.4,197.6 376.9,197.3 377.4,196.9 377.9,196.6 378.3,196.2 378.8,195.9 379.3,195.5 379.8,195.1 380.3,194.8 380.8,194.4 381.3,194.1 381.7,193.7 382.2,193.4 382.7,193 383.2,192.6 383.7,192.3 384.2,191.9 384.7,191.6 385.1,191.2 385.6,190.8 386.1,190.5 386.6,190.1 387.1,189.8 387.6,189.4 388.1,189.1 388.5,188.7 389,188.3 389.5,188 390,187.6 390.5,187.3 391,186.9 391.5,186.6 391.9,186.2 392.4,185.8 392.9,185.5 393.4,185.1 393.9,184.8 394.4,184.4 394.9,184.1 395.4,183.7 395.8,183.3 396.3,183 396.8,182.6 397.3,182.3 397.8,181.9 398.3,181.5 398.8,181.2 399.2,180.8 399.7,180.5 400.2,180.1 400.7,179.8 401.2,179.4 401.7,179 402.2,178.7 402.6,178.3 403.1,178 403.6,177.6 404.1,177.3 404.6,176.9 405.1,176.5 405.6,176.2 406,175.8 406.5,175.5 407,175.1 407.5,174.8 408,174.4 408.5,174 409,173.7 409.5,173.3 409.9,173 410.4,172.6 410.9,172.2 411.4,171.9 411.9,171.5 412.4,171.2 412.9,170.8 413.3,170.5 413.8,170.1 414.3,169.7 414.8,169.4 415.3,169 415.8,168.7 416.3,168.3 416.7,168 417.2,167.6 417.7,167.2 418.2,166.9 418.7,166.5 419.2,166.2 419.7,165.8 420.1,165.5 420.6,165.1 421.1,164.7 421.6,164.4 422.1,164 422.6,163.7 423.1,163.3 423.5,162.9 424,162.6 424.5,162.2 425,161.9 425.5,161.5 426,161.2 426.5,160.8 427,160.4 427.4,160.1 427.9,159.7 428.4,159.4 428.9,159 429.4,158.7 429.9,158.3 430.4,157.9 430.8,157.6 431.3,157.2 431.8,156.9 432.3,156.5 432.8,156.2 433.3,155.8 433.8,155.4 434.2,155.1 434.7,154.7 435.2,154.4 435.7,154 436.2,153.6 436.7,153.3 437.2,152.9 437.6,152.6 438.1,152.2 438.6,151.9 439.1,151.5 439.6,151.1 440.1,150.8 440.6,150.4 441.1,150.1 441.5,149.7 442,149.4 442.5,149 443,148.6 443.5,148.3 444,147.9 444.5,147.6 444.9,147.2 445.4,146.9 445.9,146.5 446.4,146.1 446.9,145.8 447.4,145.4 447.9,145.1 448.3,144.7 448.8,144.3 449.3,144 449.8,143.6 450.3,143.3 450.8,142.9 451.3,142.6 451.7,142.2 452.2,141.8 452.7,141.5 453.2,141.1 453.7,140.8 454.2,140.4 454.7,140.1 455.1,139.7 455.6,139.3 456.1,139 456.6,138.6 457.1,138.3 457.6,137.9 458.1,137.5 458.6,137.2 459,136.8 459.5,136.5 460,136.1 460.5,135.8 461,135.4 461.5,135 462,134.7 462.4,134.3 462.9,134 463.4,133.6 463.9,133.3 464.4,132.9 464.9,132.5 465.4,132.2 465.8,131.8 466.3,131.5 466.8,131.1 467.3,130.8 467.8,130.4 468.3,130 468.8,129.7 469.2,129.3 469.7,129 470.2,128.6 470.7,128.2 471.2,127.9 471.7,127.5 472.2,127.2 472.7,126.8 473.1,126.5 473.6,126.1 474.1,125.7 474.6,125.4 475.1,125 475.6,124.7 476.1,124.3 476.5,124 477,123.6 477.5,123.2 478,122.9 478.5,122.5 479,122.2 479.5,121.8 479.9,121.5 480.4,121.1 480.9,120.7 481.4,120.4 481.9,120 482.4,119.7 482.9,119.3 483.3,118.9 483.8,118.6 484.3,118.2 484.8,117.9 485.3,117.5 485.8,117.2 486.3,116.8 486.7,116.4 487.2,116.1 487.7,115.7 488.2,115.4 488.7,115 489.2,114.7 489.7,114.3 490.2,113.9 490.6,113.6 491.1,113.2 491.6,112.9 492.1,112.5 492.6,112.2 493.1,111.8 493.6,111.4 494,111.1 494.5,110.7 495,110.4 495.5,110 496,109.6 496.5,109.3 497,108.9 497.4,108.6 497.9,108.2 498.4,107.9 498.9,107.5 499.4,107.1 499.9,106.8 500.4,106.4 500.8,106.1 501.3,105.7 501.8,105.4 502.3,105 502.8,104.6 503.3,104.3 503.8,103.9 504.3,103.6 504.7,103.2 505.2,102.9 505.7,102.5 506.2,102.1 506.7,101.8 507.2,101.4 507.7,101.1 508.1,100.7 508.6,100.3 509.1,100 509.6,99.6 510.1,99.3 510.6,98.9 511.1,98.6 511.5,98.2 512,97.8 512.5,97.5 513,97.1 513.5,96.8 514,96.4 514.5,96.1 514.9,95.7 515.4,95.3 515.9,95 516.4,94.6 516.9,94.3 517.4,93.9 517.9,93.6 518.3,93.2 518.8,92.8 519.3,92.5 519.8,92.1 520.3,91.8 520.8,91.4 521.3,91 521.8,90.7 522.2,90.3 522.7,90 523.2,89.6 523.7,89.3 524.2,88.9 524.7,88.5 525.2,88.2 525.6,87.8 526.1,87.5 526.6,87.1 527.1,86.8 527.6,86.4 528.1,86 528.6,85.7 529,85.3 529.5,85 530,84.6 530.5,84.3 531,83.9 531.5,83.5 532,83.2 532.4,82.8 532.9,82.5 533.4,82.1 533.9,81.7 534.4,81.4 534.9,81 535.4,80.7 535.9,80.3 536.3,80 536.8,79.6 537.3,79.2 537.8,78.9 538.3,78.5 538.8,78.2 539.3,77.8 539.7,77.5 540.2,77.1 540.7,76.7 541.2,76.4 541.7,76 542.2,75.7 542.7,75.3 543.1,74.9 543.6,74.6 544.1,74.2 544.6,73.9 545.1,73.5 545.6,73.2 546.1,72.8 546.5,72.4 547,72.1 547.5,71.7 548,71.4 548.5,71 549,70.7 549.5,70.3 549.9,69.9 550.4,69.6 550.9,69.2 551.4,68.9 551.9,68.5 552.4,68.2 552.9,67.8 553.4,67.4 553.8,67.1 554.3,66.7 554.8,66.4 555.3,66 555.8,65.6 556.3,65.3 556.8,64.9 557.2,64.6 557.7,64.2 558.2,63.9 558.7,63.5 559.2,63.1 559.7,62.8 560.2,62.4 560.6,62.1 561.1,61.7 561.6,61.4 562.1,61 562.6,60.6 563.1,60.3 563.6,59.9 564,59.6 564.5,59.2 565,58.9 565.5,58.5 566,58.1 566.5,57.8 567,57.4 567.5,57.1 567.9,56.7 568.4,56.3 568.9,56 569.4,55.6 569.9,55.3 570.4,54.9 570.9,54.6 571.3,54.2 571.8,53.8 572.3,53.5 572.8,53.1 573.3,52.8 573.8,52.4 574.3,52.1 574.7,51.7 575.2,51.3 575.7,51 576.2,50.6 576.7,50.3 577.2,49.9 577.7,49.6 578.1,49.2 578.6,48.8 579.1,48.5 579.6,48.1 580.1,47.8 580.6,47.4 581.1,47 581.5,46.7 582,46.3 582.5,46 583,45.6 583.5,45.3 584,44.9 584.5,44.5 585,44.2 585.4,43.8 585.9,43.5 586.4,43.1 586.9,42.8 587.4,42.4 587.9,42 588.4,41.7 588.8,41.3 589.3,41 589.8,40.6 590.3,40.3 590.8,39.9 591.3,39.5 591.8,39.2 592.2,38.8 592.7,38.5 593.2,38.1 593.7,37.7 594.2,37.4 594.7,37 595.2,36.7 595.6,36.3 596.1,36 596.6,35.6 597.1,35.2 597.6,34.9 598.1,34.5 598.6,34.2 599.1,33.8 599.5,33.5 600,33.1 600.5,32.7 601,32.4 601.5,32 602,31.7 602.5,31.3 602.9,31 603.4,30.6 603.9,30.2 604.4,29.9 604.9,29.5 605.4,29.2 605.9,28.8 606.3,28.4 606.8,28.1 607.3,27.7 607.8,27.4 608.3,27 608.8,26.7 609.3,26.3 609.7,25.9 610.2,25.6 610.7,25.2 611.2,24.9 611.7,24.5 612.2,24.2 612.7,23.8 613.1,23.4 613.6,23.1 614.1,22.7 614.6,22.4 615.1,22 615.6,21.7 616.1,21.3 616.6,20.9 617,20.6 617.5,20.2 618,19.9 618.5,19.5 619,19.1 619.5,18.8 620,18.4 620.4,18.1 620.9,17.7 621.4,17.4 621.9,17 " />
</g>

<g fill="none" stroke="#000000" stroke-opacity="1" stroke-width="1" stroke-linecap="square" stroke-linejoin="bevel" transform="matrix(1.00625,0,0,1.00625,0,0)"
font-family="Noto Sans" font-size="10" font-weight="400" font-style="normal" 
>
</g>

<g fill="none" stroke="#000000" stroke-opacity="1" stroke-width="1" stroke-linecap="square" stroke-linejoin="bevel" transform="matrix(1.00625,0,0,1.00625,0,0)"
font-family="Noto Sans" font-size="10" font-weight="400" font-style="normal" 
>
</g>

<g fill="none" stroke="#000000" stroke-opacity="1" stroke-width="1" stroke-linecap="round" stroke-linejoin="round" transform="matrix(1.00625,0,0,1.00625,0,0)"
font-family="Noto Sans" font-size="10" font-weight="400" font-style="normal" 
>
<polyline fill="none" vector-effect="none" points="39.5,17.5 39.5,445.5 621.5,445.5 621.5,17.5 39.5,17.5 " />
</g>

<g fill="none" stroke="#000000" stroke-opacity="1" stroke-width="1" stroke-linecap="square" stroke-linejoin="bevel" transform="matrix(1.00625,0,0,1.00625,0,0)"
font-family="Noto Sans" font-size="10" font-weight="400" font-style="normal" 
>
</g>

<g fill="none" stroke="#000000" stroke-opacity="1" stroke-width="1" stroke-linecap="square" stroke-linejoin="bevel" transform="matrix(1,0,0,1,0,0)"
font-family="Noto Sans" font-size="10" font-weight="400" font-style="normal" 
>
</g>
</g>
</svg>
